<?xml version="1.0" standalone="no"?>
<!DOCTYPE svg PUBLIC "-//W3C//DTD SVG 20010904//EN"
 "http://www.w3.org/TR/2001/REC-SVG-20010904/DTD/svg10.dtd">
<svg version="1.0" xmlns="http://www.w3.org/2000/svg"
 width="554.000000pt" height="554.000000pt" viewBox="0 0 554.000000 554.000000"
 preserveAspectRatio="xMidYMid meet">
<metadata>
Created by potrace 1.11, written by Peter Selinger 2001-2013
</metadata>
<g transform="translate(0.000000,554.000000) scale(0.100000,-0.100000)"
fill="#000000" stroke="none">
<path d="M2628 5505 c-121 -35 -134 -43 -408 -229 -92 -63 -107 -67 -253 -60
-224 12 -389 10 -442 -4 -74 -20 -164 -66 -218 -113 -73 -63 -126 -146 -218
-334 -53 -108 -95 -182 -118 -204 -20 -20 -99 -65 -190 -109 -173 -84 -234
-120 -303 -181 -82 -73 -151 -201 -166 -311 -9 -63 -8 -197 3 -320 17 -212 11
-233 -117 -415 -187 -263 -229 -440 -155 -651 24 -70 96 -195 166 -289 64 -86
100 -153 108 -197 8 -50 8 -59 -3 -198 -20 -276 -3 -402 70 -518 78 -124 157
-182 427 -311 141 -68 184 -104 225 -191 101 -208 145 -292 181 -341 137 -186
322 -253 618 -224 161 15 261 14 302 -5 21 -9 103 -61 181 -114 217 -149 329
-191 485 -181 135 8 249 59 448 200 140 100 160 108 254 109 44 0 130 -3 190
-8 181 -14 271 -8 362 24 161 56 257 154 360 364 30 61 69 140 86 175 18 36
46 79 64 97 19 19 109 70 215 123 189 93 269 147 330 222 110 136 137 272 113
564 -19 227 -15 238 125 441 137 198 184 319 179 464 -5 146 -53 259 -194 455
-120 165 -130 204 -110 420 24 269 2 401 -90 530 -70 99 -171 171 -356 257
-212 97 -233 116 -311 288 -143 312 -252 428 -450 479 -62 17 -96 19 -228 14
-299 -10 -363 -9 -395 8 -38 19 -76 42 -89 52 -119 90 -265 179 -336 205 -118
42 -236 48 -342 17z"/>
</g>
</svg>
