<?xml version="1.0" standalone="no"?>
<!DOCTYPE svg PUBLIC "-//W3C//DTD SVG 1.1//EN" "http://www.w3.org/Graphics/SVG/1.1/DTD/svg11.dtd" >
<svg xmlns="http://www.w3.org/2000/svg" xmlns:xlink="http://www.w3.org/1999/xlink" version="1.1">
<metadata></metadata>
<defs>
<font id="modakregular" horiz-adv-x="1110" >
<font-face units-per-em="2048" ascent="1638" descent="-410" />
<missing-glyph horiz-adv-x="480" />
<glyph unicode="&#xfb01;" horiz-adv-x="1517" d="M12 882q0 122 58 211h87q23 167 129.5 254.5t282.5 87.5q126 0 219.5 -37t142.5 -87q30 83 102.5 132.5t166.5 49.5q120 0 201.5 -81.5t81.5 -204.5q0 -99 -62 -173.5t-151 -93.5q0 -38 29 -38q51 0 104 40q40 -31 49 -42v-396q0 -149 72 -194q1 -5 1 -19v-18 q0 -147 -80 -221q-74 -70 -197.5 -70t-203.5 70q-101 89 -101 260v650q18 13 39 21t44 20q-70 37 -99 119q-8 -47 -23 -85q-69 -27 -193 -27q-51 0 -111.5 7t-89.5 14q-7 -7 -7 -20q0 -17 48 -31.5t150.5 -14.5t188.5 15v-303h-206v-621q-109 -69 -258 -69q-119 0 -190 43 q-79 45 -79 133v469h31q50 0 50 33q0 4 -2 12h-166q-58 83 -58 205z" />
<glyph unicode="&#xfb02;" horiz-adv-x="1530" d="M12 882q0 122 58 211h87q24 166 130 254t282 88q115 0 200.5 -29t133.5 -69v-300q-69 -27 -192 -27q-51 0 -111.5 7t-89.5 14q-7 -7 -7 -20q0 -17 48 -31.5t155.5 -14.5t176.5 12q7 -16 13.5 -60.5t6.5 -87.5q0 -92 -34 -152h-185v-621q-109 -69 -258 -69q-119 0 -190 43 q-79 45 -79 133v469h31q50 0 50 33q0 4 -2 12h-166q-58 83 -58 205zM956 322v1039q105 64 240.5 64t202 -57.5t66.5 -160.5v-703q0 -149 72 -194q1 -5 1 -19v-18q0 -143 -72.5 -217t-205.5 -74t-211 74q-93 88 -93 266z" />
<glyph unicode="&#xfb03;" horiz-adv-x="2263" d="M12 882q0 122 58 211h87q23 167 129.5 254.5t282.5 87.5q116 0 210 -32.5t145 -85.5q-79 -130 -82 -298q-63 -9 -118 -9t-118 6.5t-94 14.5q-7 -7 -7 -20q0 -17 50.5 -31.5t160.5 -14.5t179 12v32q0 198 105 312t315 114q126 0 219.5 -37t142.5 -87q30 83 102.5 132.5 t166.5 49.5q120 0 201.5 -81.5t81.5 -204.5q0 -99 -62 -173.5t-151 -93.5q0 -38 29 -38q51 0 104 40q40 -31 49 -42v-396q0 -149 72 -194q1 -5 1 -19v-18q0 -147 -80 -221q-74 -70 -197.5 -70t-203.5 70q-101 89 -101 260v650q18 13 39 21t44 20q-70 37 -99 119 q-8 -47 -23 -85q-69 -27 -193 -27q-51 0 -111.5 7t-89.5 14q-7 -7 -7 -20q0 -17 48 -31.5t150.5 -14.5t188.5 15v-303h-206v-621q-109 -69 -258 -69q-119 0 -190 43q-79 45 -79 133v469h31q50 0 50 33q0 4 -2 12h-298v-621q-109 -69 -258 -69q-119 0 -190 43q-79 45 -79 133 v469h31q50 0 50 33q0 4 -2 12h-166q-58 83 -58 205z" />
<glyph horiz-adv-x="0" />
<glyph horiz-adv-x="0" />
<glyph unicode="&#xd;" horiz-adv-x="512" />
<glyph unicode=" "  horiz-adv-x="480" />
<glyph unicode="&#x09;" horiz-adv-x="480" />
<glyph unicode="&#xa0;" horiz-adv-x="480" />
<glyph unicode="!" horiz-adv-x="578" d="M0 277q0 80 40.5 147.5t107.5 106.5q-60 104 -96 239t-36 280v326q42 30 109 49t136 19q150 0 216.5 -75.5t66.5 -254.5v-64q0 -231 -106 -465q-52 23 -92 23t-40 -37v-4q114 -8 193 -91.5t79 -200t-85 -201.5q-86 -84 -205 -84t-203.5 84.5t-84.5 202.5z" />
<glyph unicode="&#x22;" horiz-adv-x="931" d="M20 1316q24 27 88.5 41t133.5 14q126 0 197 -34v-504q-60 -57 -198 -57q-57 0 -108 14t-77 43zM493 833v505q22 10 82 24q49 9 112.5 9t129 -13.5t94.5 -41.5l-34 -483q-60 -57 -193.5 -57t-190.5 57z" />
<glyph unicode="#" horiz-adv-x="1354" d="M20 405q0 59 16 104.5t51 98.5h97q46 0 46 26q0 11 -2 19h-97q-57 92 -57 199q0 59 16 104.5t51 98.5h117q50 0 50 31q0 4 -2 12h-40l18 125q67 31 119 46.5t121 15.5q103 0 157 -50t54 -135q0 -22 -3 -45h58q43 0 43 25q0 10 -2 18h-39q1 4 1 13v11q0 45 -34 98 q113 65 248 65q103 0 157 -50t54 -135q0 -22 -3 -45h51q36 -53 52 -99t16 -104q0 -104 -68 -199h-102q-46 0 -46 -25q0 -12 2 -20h106q58 -100 58 -203.5t-68 -198.5h-109l-20 -146q-84 -70 -226.5 -70t-201.5 90l13 81q45 0 45 26q0 11 -2 19h-91l-20 -146 q-99 -70 -234 -70q-104 0 -161 40q-64 43 -64 133h7q50 0 50 31q0 4 -2 12h-113q-67 94 -67 199zM649 591q0 -16 8.5 -22t26.5 -6h14q19 123 19 135q0 9 -7.5 15t-28.5 6h-13z" />
<glyph unicode="$" horiz-adv-x="1131" d="M-10 875q0 187 140 299q118 94 314 123q1 3 1 11q0 28 -30 28q-17 0 -58 -12v108q91 64 214.5 64t229.5 -64v-142q165 -30 252 -80q23 -67 23 -149q0 -156 -72 -235q-39 28 -120.5 50t-154.5 22t-98.5 -12t-25.5 -25q0 -9 3 -17q35 9 90 9q193 0 318 -95 q145 -112 145 -327q0 -156 -111.5 -274.5t-313.5 -158.5q-1 -3 -1 -11q0 -28 30 -28q17 0 58 12v-108q-91 -64 -214.5 -64t-229.5 64v131q-163 22 -292 94q-75 102 -75 213t77 185t189.5 74t184 -46t105.5 -150q39 0 39 27t-18.5 63.5t-52.5 67.5q-90 83 -240 83 q-72 0 -126 -18q-82 30 -131 109t-49 179z" />
<glyph unicode="%" horiz-adv-x="1407" d="M20 855q0 201 115.5 328t314.5 127q108 0 194.5 -44t141.5 -123l102 149q44 18 101 18q120 0 226 -83q100 -80 127 -186l-127 -190q-83 39 -146 39q-37 0 -37 -30q0 -8 1 -10q163 -19 259 -133q95 -114 95 -292q0 -198 -113.5 -316.5t-316.5 -118.5q-109 0 -195 43.5 t-142 122.5l-101 -148q-44 -18 -101 -18q-119 0 -225 84q-102 79 -128 185l127 190q83 -39 146 -39q37 0 37 30v5q-1 1 -1 4q-168 18 -259 123q-95 106 -95 283zM440 800q0 -47 26.5 -47t26.5 47q0 99 -6.5 129t-31.5 30q-10 0 -15 -4v-155zM960 356q0 -47 26.5 -47t26.5 47 q0 99 -6.5 129t-31.5 30q-10 0 -15 -4v-155z" />
<glyph unicode="&#x26;" horiz-adv-x="1291" d="M15 425q0 280 258 368q-35 28 -60.5 87t-25.5 124q0 141 100 227t286 86q162 0 256 -96q82 -83 82 -205q0 -83 -62 -100l-195 -55q-242 -68 -242 -271q0 -108 75 -181q68 -68 163 -68q36 0 63 14t27 40q0 14 -9.5 22t-24.5 8q-36 0 -55 -39q-82 6 -134.5 64.5 t-52.5 139.5t50.5 140t156.5 90l195 56q90 26 90 119q56 21 109 21q89 0 153 -64q63 -66 63 -162t-54 -152.5t-128 -78.5l-16 -5v-5q0 -28 31 -28q13 0 28 9q44 -50 44 -133t-36.5 -162.5t-106.5 -138.5q-156 -133 -423 -133t-433 126q-172 127 -172 336z" />
<glyph unicode="'" horiz-adv-x="492" d="M20 1316q24 27 88.5 41t134 14t135 -13.5t94.5 -41.5l-34 -483q-60 -57 -196 -57q-58 0 -109 14t-77 43z" />
<glyph unicode="(" horiz-adv-x="587" d="M0 673.5q0 258.5 112 486.5q87 177 210 281q73 -6 157 -43q83 -39 128 -91q-125 -316 -125 -628v-4q0 -173 36.5 -345.5t88.5 -302.5q-45 -53 -127.5 -90.5t-157.5 -43.5q-115 101 -205 284q-117 238 -117 496.5z" />
<glyph unicode=")" horiz-adv-x="587" d="M-20 27q52 130 88.5 302.5t36.5 345.5v4q0 312 -125 628q45 52 128 90t157 44q123 -104 210 -281q112 -228 112 -487.5t-116 -495.5q-89 -181 -206 -284q-76 6 -156 44q-83 37 -129 90z" />
<glyph unicode="*" horiz-adv-x="726" d="M5 1117q0 19 8 46q22 63 64.5 84.5t126.5 23.5q24 79 60 113.5t99 34.5t99 -34.5t60 -113.5q84 -2 127 -23.5t64 -84.5q8 -27 8 -46q0 -44 -25.5 -78.5t-73.5 -69.5q19 -70 19 -106q0 -58 -63 -104q-44 -32 -91 -32t-124 57q-77 -57 -122.5 -57t-86 27.5t-55 54.5 t-14.5 58.5t19 101.5q-99 70 -99 148z" />
<glyph unicode="+" horiz-adv-x="1071" d="M10 600q0 72 21 130.5t62 119.5h208q50 0 50 27q0 11 -2 19h-77v198q93 102 259 102q128 0 198 -51q73 -56 73 -165v-130h175q44 -64 64 -121t20 -128.5t-20.5 -128t-63.5 -116.5h-255q-2 -6 -2 -16q0 -26 30 -30h52v-168q-91 -102 -259 -102q-130 0 -198 52 q-73 54 -73 164v100h-179q-83 114 -83 244z" />
<glyph unicode="," horiz-adv-x="617" d="M20 306q0 124 80.5 194t201.5 70q143 0 227 -100q78 -95 78 -243q0 -186 -105 -293q-95 -98 -229 -98q-91 0 -145.5 36.5t-54.5 109.5q0 48 30 83q63 -34 139 -34q123 0 123 44q0 11 -13 24q-42 -23 -109 -23q-91 0 -157 64t-66 166z" />
<glyph unicode="-" horiz-adv-x="721" d="M10 610q0 72 21 130.5t62 119.5h534q44 -64 64 -121t20 -128.5t-20.5 -128t-63.5 -116.5h-534q-83 114 -83 244z" />
<glyph unicode="." horiz-adv-x="608" d="M20 277.5q0 118.5 85 205.5q85 85 203 85t205 -85q85 -87 85 -205.5t-85 -203.5q-86 -84 -205 -84t-203.5 84.5t-84.5 203z" />
<glyph unicode="/" horiz-adv-x="714" d="M40 106l153 1098q85 105 267 105q80 0 155 -34q59 -29 99 -79l-156 -1115q-78 -91 -251 -91q-90 0 -160.5 32t-106.5 84z" />
<glyph unicode="0" horiz-adv-x="1194" d="M22 644q0 315 161.5 497t413.5 182t413.5 -182t161.5 -496.5t-158 -491.5q-152 -169 -417 -169t-416 169q-159 176 -159 491zM440 820q0 -27 32 -90.5t97.5 -153t118.5 -136.5q55 -50 80 -50t29 24q-30 22 -82 76q-62 62 -106.5 123t-88.5 142t-49 101q-31 0 -31 -36z " />
<glyph unicode="1" horiz-adv-x="737" d="M-48 935q0 84 35 163q126 15 196 50q98 50 168 161h179q86 0 127 -32q48 -39 48 -137v-1062q-51 -47 -118.5 -71.5t-138.5 -24.5q-117 0 -190 56q-83 63 -83 184v406q59 0 105 11t46 33q0 14 -9 23q-61 -22 -133 -22q-98 0 -165 67.5t-67 194.5z" />
<glyph unicode="2" horiz-adv-x="1132" d="M22 890q0 201 159 319q148 110 379.5 110t383.5 -122q163 -132 163 -353q0 -161 -95 -268q-107 -120 -313 -161q0 -38 34 -38q60 0 147 38t135 90q95 -95 95 -250.5t-89 -244.5h-899q-77 115 -77 254.5t54 234.5q197 38 357 139t160 214q0 30 -13.5 49t-37.5 19 q-49 0 -49 -51.5t35 -75.5q-49 -73 -151 -134t-200 -88q-178 118 -178 319z" />
<glyph unicode="3" horiz-adv-x="1170" d="M22 381q0 111 71.5 184.5t202.5 73.5h17q3 -1 16 -1q18 -114 94 -179t174 -65q78 0 78 30q0 14 -5 22q-25 -5 -65 -5q-95 0 -160 60t-65 160t62.5 159.5t163.5 59.5h18q8 0 22 -2q3 6 3 13q0 32 -53 32q-88 0 -161.5 -51t-100.5 -150q-150 0 -231 71q-69 60 -69 157 q0 163 148.5 269t387 106t393.5 -119q154 -119 154 -308q0 -125 -90 -206q-44 21 -77 21t-33 -27q0 -12 6 -17q79 0 144 -58q81 -72 81 -205q0 -202 -171 -318q-157 -106 -399.5 -106t-399 109t-156.5 290z" />
<glyph unicode="4" horiz-adv-x="1190" d="M2 571q0 83 14 145q148 127 275 289q70 90 207 303h255q125 0 204 -67.5t79 -184.5v-382h-21q-43 0 -43 -34v-13h161q35 -88 35 -201q0 -78 -33 -136.5t-100 -73.5v-153q-112 -81 -270.5 -81t-258.5 75v108h81q32 0 46 5.5t14 19t-4 22.5h-303q-168 0 -257 105 q-81 94 -81 254zM496 611h107v134h-22q-37 -71 -85 -115v-19z" />
<glyph unicode="5" horiz-adv-x="1158" d="M22 353q0 127 84.5 199t198.5 72t192 -65q88 -75 94 -200q46 0 46 43q0 106 -87 186.5t-244 80.5q-95 0 -175 -36q-33 12 -52 44t-19 70q0 6 4 43q15 210 45 405q11 72 34 89.5t93 17.5h766q52 -87 52 -228t-60 -225q-62 38 -119 57q-89 28 -191 28h-112l-6 -45h93 q207 0 336 -107q141 -118 141 -332t-158 -341t-433 -127q-245 0 -384 105.5t-139 265.5z" />
<glyph unicode="6" horiz-adv-x="1181" d="M22 633q0 181 68.5 337.5t207.5 251.5q151 101 358 101q266 0 400 -123q1 -8 1 -29v-29q0 -77 -20 -151t-59 -123q-110 51 -248 51q-90 0 -161 -24.5t-71 -53.5q0 -12 7 -22q123 55 225 55q218 0 330 -127q99 -114 99 -299q0 -217 -165 -347q-151 -118 -363 -118 q-259 0 -425 160q-184 176 -184 490zM544 504q0 -34 19.5 -55t52.5 -21q51 0 51 41q0 47 -63 47q-38 0 -60 -12z" />
<glyph unicode="7" horiz-adv-x="987" d="M-48 1069q0 71 27 134.5t72 98.5h569q355 0 355 -280q0 -78 -27 -179l-281 -490q-67 -118 -67 -223q0 -49 8 -80q-82 -68 -230 -68t-230.5 85t-82.5 208q0 94 59 204l160 306h158q45 0 45 32v7q0 5 -1 8h-442q-42 37 -67 101.5t-25 135.5z" />
<glyph unicode="8" horiz-adv-x="1198" d="M22 431q0 86 26 142.5t63 87.5q20 -23 69 -49t75 -26q29 0 29 34q-88 34 -143 88q-83 79 -83 197q0 182 143.5 300.5t377 118.5t387.5 -115t154 -291q0 -52 -16.5 -97t-45.5 -68q-12 7 -22 15q-67 41 -103 41q-31 0 -31 -34q131 -44 200 -124q74 -90 74 -230 q0 -204 -168 -325q-159 -113 -410 -113t-412 120q-164 120 -164 328zM534 872q0 -16 27.5 -24.5t69.5 -16.5q17 17 17 37.5t-15.5 31t-42.5 10.5q-56 0 -56 -38zM549 443.5q0 -17.5 15.5 -28t42.5 -10.5q56 0 56 38q0 21 -92 39q-22 -21 -22 -38.5z" />
<glyph unicode="9" horiz-adv-x="1186" d="M22 823q0 222 150.5 361.5t409.5 139.5t420.5 -180.5t161.5 -467.5q0 -308 -179 -501t-492 -193q-93 0 -193 20q-97 17 -136 37q-49 80 -49 183q0 56 17.5 108.5t45.5 90.5q46 -35 138.5 -64t194 -29t101.5 36q0 11 -4 16q-37 -7 -99 -7q-120 0 -232.5 50t-183.5 151.5 t-71 248.5zM518 817q0 -47 63 -47q33 0 59 8q0 36 -19 58t-52 22q-51 0 -51 -41z" />
<glyph unicode=":" horiz-adv-x="608" d="M20 277q0 73 37 142t107 109q-67 39 -105.5 104t-38.5 144q0 120 85.5 205.5t204 85.5t203.5 -85q85 -87 85 -200.5t-66.5 -188.5t-170.5 -89q0 -36 35 -36q48 0 95 32q50 -40 78.5 -98.5t28.5 -124.5q0 -118 -84.5 -202.5t-204 -84.5t-204.5 84t-85 203z" />
<glyph unicode=";" horiz-adv-x="618" d="M20 776q0 120 85.5 205.5t204 85.5t203.5 -85q85 -87 85 -200.5t-66.5 -188.5t-170.5 -89q0 -36 35 -36q25 0 54 11t45 23q55 -43 84 -115.5t29 -159.5q0 -186 -105 -293q-95 -98 -229 -98q-92 0 -144 36q-56 37 -56 110q0 48 30 83q63 -34 139 -34q123 0 123 44 q0 11 -13 24q-42 -23 -109 -23q-91 0 -157 64t-66 166q0 162 131 229q-61 39 -96.5 102.5t-35.5 138.5z" />
<glyph unicode="&#x3c;" horiz-adv-x="924" d="M5 624q0 151 77 258l637 319q84 -63 132 -140t48 -155q0 -115 -72 -182q-89 -83 -317 -139q0 -32 41 -32t147 36l123 -84q98 -67 98 -174q0 -84 -53 -157q-41 -57 -147 -135l-638 343q-76 120 -76 242z" />
<glyph unicode="=" horiz-adv-x="954" d="M5 353q0 66 17.5 116.5t57.5 109.5h793q40 -59 58 -109.5t18 -116.5q0 -117 -76 -220h-793q-75 101 -75 220zM5 857q0 66 17.5 116t57.5 109h793q40 -59 58 -109.5t18 -115t-18 -115.5t-58 -106h-793q-75 104 -75 221z" />
<glyph unicode="&#x3e;" horiz-adv-x="902" d="M5 897q0 81 48 158t131 139l637 -319q39 -56 57.5 -117t18.5 -141q0 -124 -75 -243l-612 -332q-99 71 -150 139.5t-51 153.5q0 64 33 115q40 62 139 107l213 94q-3 26 -27 26q-9 0 -15.5 -0.5t-134.5 -48.5q-109 48 -160.5 118t-51.5 151z" />
<glyph unicode="?" horiz-adv-x="1077" d="M-10 1038q0 183 151 303t376 120q277 0 426 -141q134 -128 134 -331q0 -122 -53 -217.5t-128.5 -160t-152.5 -101.5q-28 27 -61 42.5t-52.5 15.5t-27.5 -6.5t-8 -25.5q92 -27 148 -100t56 -169q0 -113 -85 -195q-87 -82 -205 -82t-203 82t-85 195q0 96 54 169 q-64 66 -64 153q0 105 57 168q49 52 190 115q58 24 82 46.5t24 50.5q0 49 -39 49q-41 0 -41 -43q0 -14 3.5 -23t4.5 -13q-11 -9 -57 -28q-184 -75 -237 -164q-85 26 -146 106.5t-61 184.5z" />
<glyph unicode="@" horiz-adv-x="1737" d="M20 611q0 194 63 351t176.5 266.5t267.5 166t333 56.5q257 0 451 -103.5t300 -287.5q106 -186 106 -425q0 -405 -222 -625q-223 -223 -635 -223q-236 0 -428 106.5t-300 292.5q-112 190 -112 425zM474 501.5q0 -142.5 101.5 -220.5t264.5 -78q87 0 126 12t39 38 q0 6 -3 14q-76 -21 -166 -21q-135 0 -218 64q-93 70 -93 191.5t76.5 187t199.5 65.5q90 0 166 -21q2 10 2 13q0 23 -48.5 37.5t-119.5 14.5q-148 0 -237.5 -77t-89.5 -219.5zM609 994q0 -13 6 -23q129 43 251 43q183 0 277.5 -85.5t94.5 -237.5v-158q0 -59 28 -87t68 -28 q24 0 24 28q-35 7 -52 26t-17 59v192q0 134 -97 227q-117 112 -326 112q-85 0 -172 -21q-85 -24 -85 -47zM848 518q0 -28 38 -28q26 0 39 13t13 45h-57q-33 0 -33 -30z" />
<glyph unicode="A" horiz-adv-x="1349" d="M14 202q0 26 5 46l213 952q80 51 191 80t231 29q172 0 294 -58q139 -66 169 -191l228 -943q-104 -135 -339 -135q-114 0 -193 41t-92 117l-22 122q60 1 116 23t56 46q0 16 -13 26q-38 -27 -93 -41t-102 -14q-135 0 -208 55q-10 -14 -10 -26q0 -29 54.5 -48.5t132.5 -24.5 q13 -144 28 -164q-19 -37 -105 -74.5t-194 -37.5q-143 0 -245 61.5t-102 158.5zM615 859l38 -202q8 -8 25 -8t29 7q-26 152 -35 180q-11 29 -33 29q-10 0 -24 -6z" />
<glyph unicode="B" horiz-adv-x="1226" d="M32 236v917q0 23 38 52q80 61 282 95q105 17 231 17q300 0 454 -116q135 -102 135 -268q0 -60 -21 -117.5t-60 -86.5q-53 27 -102 27q-23 0 -35 -9t-12 -33q147 -6 229 -106q73 -91 73 -226q0 -209 -175 -304q-164 -89 -494 -89q-231 0 -339 14.5t-156 68.5t-48 164z M574 531q1 -5 1 -17v-123q4 -3 23 -3t29 13t10 46v19q0 37 -8.5 53t-28 16t-26.5 -4zM574 898q1 -5 1 -17v-113q4 -3 23 -3t29 15t10 49v6q0 36 -8.5 51.5t-28 15.5t-26.5 -4z" />
<glyph unicode="C" horiz-adv-x="1268" d="M22 653.5q0 320.5 200 503.5q88 82 205 123.5t246 41.5q252 0 413 -122t161 -301q0 -135 -83 -199.5t-225 -64.5q-78 0 -157 38.5t-94 72.5q0 82 3 129q-2 1 -7 1h-7q-15 0 -23.5 -8.5t-15 -35.5t-6.5 -147q0 -287 48 -287q10 0 18 5v91q68 46 190.5 75t238.5 29 q53 -54 88.5 -161.5t37.5 -194.5q-20 -40 -67.5 -86t-114.5 -85q-166 -98 -381 -98q-308 0 -485 179q-183 181 -183 501.5z" />
<glyph unicode="D" horiz-adv-x="1264" d="M32 236v900q0 76 152.5 128.5t340.5 52.5q331 0 517 -160q200 -172 200 -513q0 -307 -193.5 -476t-531.5 -169h-253q-111 0 -171.5 59t-60.5 178zM568 438q12 -10 27 -10q24 0 33 37.5t9 137.5v87q0 100 -9 137.5t-33 37.5q-15 0 -27 -10q2 -18 6 -48t4 -128v-65 q0 -68 -3 -99t-5 -53z" />
<glyph unicode="E" horiz-adv-x="1112" d="M32 247v951q0 48 110 70t340 22h577q29 -48 43 -104.5t14 -101.5q0 -101 -39.5 -152t-110.5 -51h-403q-37 0 -37 -29v-8q0 -6 2 -8h478q18 -31 31 -78q12 -51 12 -91q0 -119 -44 -186h-217q-152 0 -206 -11.5t-67 -19.5q-13 -9 -13 -23t14 -22q52 17 109 24q75 7 163 7 h281q61 -86 61 -207q0 -68 -17 -130t-51 -100h-749q-124 0 -199 60q-82 64 -82 188z" />
<glyph unicode="F" horiz-adv-x="1093" d="M31 182v1016q0 92 451 92h587q29 -53 43 -118.5t14 -117.5q0 -229 -201 -229h-346q-38 0 -38 -32v-7q0 -6 2 -8h442q51 -87 51 -196q0 -136 -61 -212h-490q-8 -8 -8 -18q0 -16 24.5 -19t55.5 -3t58 -1v-253q-46 -40 -122.5 -67t-186 -27t-188.5 49q-87 53 -87 151z" />
<glyph unicode="G" horiz-adv-x="1344" d="M22 645q0 327 196 506q186 171 504 171q157 0 296.5 -47t220.5 -117q0 -60 -14.5 -147t-36.5 -133h-527q-32 -34 -60.5 -98t-28.5 -147q0 -114 57 -179q50 -59 128 -59q32 0 32 22v23h-11q-66 0 -109.5 51.5t-43.5 147.5q0 120 67 194h593q57 -83 57 -201.5t-49 -192.5 h-41v-300q-197 -171 -520 -171q-197 0 -350 70q-167 75 -259 219q-101 158 -101 388z" />
<glyph unicode="H" horiz-adv-x="1285" d="M32 199v995q52 55 128.5 84.5t159.5 29.5q121 0 205 -60q91 -68 91 -188v-178h127q0 26 -9.5 35.5t-30.5 9.5h-34v267q52 55 128.5 84.5t159.5 29.5q121 0 205 -60q91 -68 91 -188v-994q-112 -84 -287 -84q-135 0 -214 55q-83 56 -83 162v198h71q41 0 51.5 10.5 t10.5 34.5h-314q0 -24 9 -34.5t43 -10.5h76v-331q-77 -50 -146 -67t-141 -17q-135 0 -214 55q-83 56 -83 162z" />
<glyph unicode="I" horiz-adv-x="648" d="M32 181v1033q46 40 123 67t186 27t189 -48q86 -55 86 -151v-1033q-46 -40 -123 -67t-187 -27t-187 49q-87 53 -87 150z" />
<glyph unicode="J" horiz-adv-x="1010" d="M22 286q0 163 99 250q80 70 197 70q89 0 162 -47q74 -50 109 -138q32 0 32 33q0 17 -14.5 45t-41.5 56q-71 73 -171 90v576q50 37 126 62t173 25t175 -34q110 -50 110 -150v-667q0 -211 -134 -343q-142 -142 -392 -142q-143 0 -271 74q-98 56 -149 129q-10 61 -10 111z " />
<glyph unicode="K" horiz-adv-x="1273" d="M32 182v1032q103 94 313 94q109 0 185 -46q86 -55 86 -162v-45q-40 -83 -61 -129.5t-21 -63.5q0 -29 33 -29l197 432q69 45 188.5 45t205.5 -66q94 -74 94 -202q0 -107 -73 -210.5t-191 -179.5q-55 31 -99 31t-44 -43q46 -9 83.5 -25.5t88.5 -63.5l266 -245 q-29 -324 -324 -324q-109 0 -187 56q-92 65 -144 198l-93 232h-5q-33 0 -33 -28q0 -18 28 -87q28 -75 84 -200v-77q-105 -94 -305 -94q-108 0 -185 49q-87 53 -87 151z" />
<glyph unicode="L" horiz-adv-x="1068" d="M32 236v978q53 45 129.5 69.5t158.5 24.5q121 0 205 -60q91 -68 91 -188v-547q-56 -5 -110 -31.5t-54 -54.5q0 -17 19 -29q99 83 294 83h237q66 -116 66 -237q0 -60 -21 -133t-56 -112h-727q-111 0 -171.5 59t-60.5 178z" />
<glyph unicode="M" horiz-adv-x="1459" d="M7 194q0 131 52 647q28 269 45 376q103 92 304 92q146 0 242 -54l55 -184l-35 -147q-4 -15 -4 -29q0 -35 40 -36l95 395q41 22 107 38.5t144 16.5q146 0 216.5 -49.5t83.5 -166.5q3 -22 9 -73q91 -782 91 -921q-111 -117 -320 -117q-137 0 -215 45q-84 47 -91 133l-9 94 q92 22 155 114q17 26 17 45q0 26 -26 26h-3q-1 -1 -4 -1q-70 -147 -227 -147q-80 0 -136.5 35t-103.5 121h-6q-27 0 -27 -23q0 -16 12 -36q40 -67 100 -105q47 -32 99 -38l-8 -189q-60 -39 -126.5 -56.5t-189 -17.5t-218.5 48q-118 59 -118 164z" />
<glyph unicode="N" horiz-adv-x="1246" d="M32 185v1002q0 52 83.5 86.5t196.5 34.5q64 0 120.5 -15.5t86.5 -39.5q41 -52 75 -106t153 -252q11 0 20 7t9 21.5t-25 56.5l-108 186v55q51 42 124 65t151 23q127 0 205 -46q91 -55 91 -172v-947q0 -86 -82 -125q-70 -35 -187 -35q-65 0 -126.5 14t-96.5 36 q-71 91 -141 204l-102 170q-29 -4 -29 -31q0 -17 29 -65l125 -202v-53q-116 -75 -261.5 -75t-228 53t-82.5 150z" />
<glyph unicode="O" horiz-adv-x="1347" d="M22 645q0 329 198 514q176 163 453 163q301 0 476.5 -186.5t175.5 -490.5q0 -338 -188 -516q-171 -161 -458 -161q-178 0 -326.5 73.5t-239.5 225t-91 378.5zM650 438q12 -10 27 -10q24 0 33 37.5t9 137.5v87q0 100 -9 137.5t-33 37.5q-15 0 -27 -10q2 -18 6 -48t4 -128 v-65q0 -68 -3 -99t-5 -53z" />
<glyph unicode="P" horiz-adv-x="1199" d="M32 189v950q0 32 43.5 64t120.5 58q165 56 377 56q293 0 467 -146t174 -392.5t-157 -383.5q-151 -130 -419 -130q-61 0 -130.5 14.5t-93.5 25.5q-8 -8 -8 -22q0 -51 210 -63v-154q-44 -37 -124 -60.5t-167 -23.5q-124 0 -203 48q-90 55 -90 159zM590 871q1 -5 1 -17v-183 q4 -3 23 -3t29 15t10 49v76q0 36 -8.5 51.5t-28 15.5t-26.5 -4z" />
<glyph unicode="Q" horiz-adv-x="1439" d="M22 653q0 231 96 389q86 142 233.5 211t317.5 69q310 0 486.5 -181.5t176.5 -474.5q0 -179 -76 -314h145q36 -108 36 -204q0 -146 -81 -235t-226 -89t-240.5 95.5t-155.5 301.5h-5q-32 0 -32 -32q0 -60 67 -184q-52 -6 -109 -6q-173 0 -314 65.5t-225 202.5 q-94 155 -94 386zM573 473q0 -17 16 -23q24 27 68 47.5t99 20.5q105 0 174 -62l7 -6q13 7 13 25q0 31 -49 59q-57 31 -146 31q-24 0 -44 -4v261q0 43 -29.5 43t-29.5 -44v-274q-79 -32 -79 -74z" />
<glyph unicode="R" horiz-adv-x="1260" d="M32 189v950q0 44 81 85.5t212 67t262 25.5q300 0 469 -123q178 -129 178 -363q0 -134 -75.5 -229.5t-190.5 -132.5q0 -32 38.5 -32t100.5 46l173 -177q-18 -156 -98.5 -240t-222.5 -84q-107 0 -186 51q-101 64 -151 204l-36 98q-42 1 -106 11q-8 -8 -8 -22q0 -27 81 -32 l57 -144v-85q-115 -81 -295 -81q-129 0 -206 53t-77 154zM590 871q1 -5 1 -17v-143q4 -3 23 -3t29 15t10 49v36q0 36 -8.5 51.5t-28 15.5t-26.5 -4z" />
<glyph unicode="S" horiz-adv-x="1175" d="M2 855q0 230 192 355q165 107 407 107q180 0 303 -38.5t201 -98.5q23 -66 23 -137t-19 -129t-55 -93q-34 25 -123 51t-162 26t-97.5 -9t-24.5 -28q0 -9 3 -17q35 9 90 9q195 0 318 -92q145 -110 145 -330q0 -194 -157 -322q-170 -137 -457 -137q-158 0 -274 23.5 t-226 82.5q-75 109 -75 221.5t77 186.5t189.5 74t184 -46t105.5 -150q33 6 33 33.5t-17.5 62t-51.5 65.5q-89 80 -241 80q-75 0 -140 -25q-69 35 -110 111t-41 164z" />
<glyph unicode="T" horiz-adv-x="1207" d="M7 1050q0 83 26.5 144.5t65.5 95.5h1034q29 -45 48 -109t19 -127q0 -118 -52 -173.5t-140 -55.5h-293q-3 -7 -3 -15q0 -18 21 -24q22 -7 94 -7h69v-703q-46 -40 -123 -67t-187 -27t-187 49q-87 53 -87 150v644h-233q-72 103 -72 225z" />
<glyph unicode="U" horiz-adv-x="1228" d="M32 502v713q118 94 273 94q130 0 206 -68.5t76 -207.5v-583q11 -8 25.5 -8t21 7.5t6.5 28.5v556q0 63 -6 100t-24 74q120 100 290 100q120 0 208 -65t88 -185v-556q0 -254 -155 -391.5t-428.5 -137.5t-425.5 135q-155 135 -155 394z" />
<glyph unicode="V" horiz-adv-x="1266" d="M2 1170q94 139 299 139q264 0 330 -207l-32 -635q12 -3 21 -3q33 0 37 50l44 728q31 27 114 48q79 18 143 18q151 0 226 -69t75 -178q0 -61 -49.5 -273.5t-142.5 -574.5q-34 -127 -153 -183q-104 -48 -275 -48q-108 0 -204 24t-154 69q-79 174 -159 478.5t-120 616.5z " />
<glyph unicode="W" horiz-adv-x="1797" d="M2 1170q45 66 123 102.5t174 36.5q144 0 226.5 -55t82.5 -157q-7 -76 -12.5 -223t-5.5 -266q0 -33 6.5 -51.5t27.5 -18.5q8 0 20 3q-1 9 -1 30v35q0 145 10 334.5t24 282.5q91 56 214 56t198 -34q90 -42 95 -123q-5 -98 -18.5 -193t-32.5 -219t-24 -164q8 -4 21 -4t24 10 t18 48q31 160 51 337.5t26 309.5q92 62 254 62q131 0 209 -69.5t78 -186.5q0 -78 -74 -409q-38 -174 -73 -297.5t-57 -173.5q-46 -101 -137.5 -145.5t-233.5 -44.5q-57 0 -131.5 17t-113.5 38q-20 31 -45 94t-31 95q-39 -1 -39 -42q0 -32 31 -118q-105 -84 -299 -84 q-97 0 -162 15q-90 19 -132 59q-94 199 -161 436q-93 328 -130 677z" />
<glyph unicode="X" horiz-adv-x="1286" d="M20 306q0 132 89 235t252 173q-12 33 -41 33t-106 -53q-75 39 -131.5 129t-56.5 208t87 202t240 84q132 0 217 -49l106 -211l86 216q85 38 190 38q149 0 242 -82q93 -84 93 -235q0 -125 -89.5 -234.5t-229.5 -173.5q11 -29 39.5 -29t92.5 44l206 -258q0 -161 -80 -257 q-88 -106 -243 -106q-236 0 -331 255l-116 -226q-75 -28 -163 -28q-155 0 -254 88t-99 237z" />
<glyph unicode="Y" horiz-adv-x="1274" d="M2 1168q45 67 134.5 103t184.5 36q125 0 215 -49q56 -151 92 -288l-49 -216q-4 -15 -4 -28q0 -34 36 -34q12 38 56 230q11 49 29.5 136.5t47.5 206.5q92 44 210 44q143 0 228 -69.5t85 -200.5q0 -192 -108 -374q-85 -144 -225 -269v-330q-83 -51 -149 -67.5t-139 -16.5 q-138 0 -217 52t-79 155v176q18 -18 46 -39.5t46 -21.5q28 0 28 31q-221 147 -337.5 361t-130.5 472z" />
<glyph unicode="Z" horiz-adv-x="1142" d="M12 338q0 51 10 95q89 106 208 233t224 227q-4 22 -27 22q-14 0 -38 -19t-74 -73h-215q-73 115 -73 235q0 82 26.5 141.5t62.5 90.5h915q36 -38 65 -113t29 -185q0 -61 -6.5 -87.5t-13.5 -44.5t-14 -38q-106 -150 -267 -302q-145 -5 -215.5 -24.5t-70.5 -47.5 q0 -12 10 -23q49 21 134.5 35.5t165.5 14.5h225q67 -119 67 -225t-47 -162t-117 -74q-51 -14 -127 -14h-733q-104 108 -104 338z" />
<glyph unicode="[" horiz-adv-x="617" d="M30 120v1024q0 112 48 165.5t170 53.5h345q32 -30 52 -84.5t20 -120.5t-25 -117t-54 -74h-44v-625h-29q-50 0 -50 -32q0 -3 2 -13h140q32 -30 52 -84.5t20 -120.5t-25 -117t-54 -74h-350q-122 0 -170 53.5t-48 165.5z" />
<glyph unicode="\" horiz-adv-x="756" d="M40 1204q85 105 267 105q80 0 155 -34q59 -29 99 -79l155 -1115q-78 -91 -252 -91q-91 0 -161.5 32t-106.5 84z" />
<glyph unicode="]" horiz-adv-x="617" d="M-60 92q0 66 20 120.5t52 84.5h140q2 10 2 13q0 32 -50 32h-29v625h-44q-29 23 -54 74t-25 117t20 120.5t52 84.5h345q122 0 170 -53.5t48 -165.5v-1024q0 -112 -48 -165.5t-170 -53.5h-350q-29 23 -54 74t-25 117z" />
<glyph unicode="^" horiz-adv-x="938" d="M20 581l186 682q35 19 110.5 32.5t142.5 13.5t141 -11.5t107 -27.5l211 -716q-25 -25 -80.5 -43t-118.5 -18t-97 6t-74 20q-10 34 -17 65q-3 14 -6 26t-8.5 33t-21.5 88.5t-21.5 89t-6.5 27.5t-6 26q-21 0 -29 -7.5t-8 -27t30 -168.5l-40 -149q-65 -29 -147 -29 t-151 23.5t-96 64.5z" />
<glyph unicode="_" horiz-adv-x="844" d="M20 244q0 72 21 130.5t62 119.5h637q44 -64 64 -121t20 -128.5t-20.5 -128t-63.5 -116.5h-637q-83 114 -83 244z" />
<glyph unicode="`" horiz-adv-x="612" d="M10 1404v105q0 82 41 134q49 63 150 63q70 0 119.5 -32.5t106.5 -105.5l175 -233q-8 -34 -31.5 -62.5t-52.5 -39.5z" />
<glyph unicode="a" d="M12 363.5q0 180.5 117 279.5q107 89 277 89q58 0 112 -8q36 -7 39 -8q3 10 3 17q0 26 -44 35t-115 9q-151 0 -258 -61q-49 83 -49 210q0 72 18 107q72 33 183 58.5t234 25.5q254 0 384 -111t130 -315v-196q0 -72 16 -116t56 -69q1 -5 1 -19v-18q0 -142 -86 -221 q-76 -70 -188 -70q-76 0 -139 36t-90 104q-34 0 -34 -33q0 -28 35 -63q-65 -44 -196 -44q-185 0 -295.5 100.5t-110.5 281zM482 408q0 -36 49 -36q34 0 50 16.5t16 57.5h-73q-42 0 -42 -38z" />
<glyph unicode="b" d="M37 220v1141q48 28 115.5 46t136.5 18q115 0 190 -45q85 -53 85 -152v-89q-84 -5 -154 -25.5t-70 -47.5q0 -16 16 -26q110 54 233 54q220 0 360.5 -151.5t140.5 -394.5q0 -294 -170 -443q-155 -136 -421.5 -136t-392.5 103q-69 57 -69 148zM524 409q10 -10 24 -10 q22 0 30 31.5t8 127.5v102q0 27 -7 38t-23 11t-23 -7v-134q0 -60 -9 -159z" />
<glyph unicode="c" horiz-adv-x="1074" d="M20 560q0 270 175 427q156 140 390 140q208 0 345 -102.5t137 -278.5q0 -122 -75.5 -198.5t-198.5 -76.5q-100 0 -166.5 53.5t-78.5 139.5q-44 0 -44 -32q0 -73 72 -134q83 -72 206.5 -72t204.5 53q50 -77 50 -187q0 -128 -110 -219q-126 -104 -338 -104 q-260 0 -414.5 160.5t-154.5 430.5z" />
<glyph unicode="d" horiz-adv-x="1147" d="M20 544q0 256 143.5 402t366.5 146q132 0 230 -50q11 11 11 23q0 30 -71 51t-143 21q0 102 -27 163q53 62 117 93.5t163 31.5q120 0 195 -67q77 -72 77 -194v-660q0 -149 72 -194q1 -5 1 -19v-18q0 -142 -86 -221q-76 -70 -188 -70q-78 0 -135 33q-67 38 -94 104 q-34 0 -34 -33q0 -15 11.5 -34.5t31.5 -34.5q-59 -35 -153 -35q-127 0 -237.5 58.5t-175.5 176.5q-75 135 -75 327zM540 458q0 -27 7 -38t23 -11t23 7v134q0 98 9 159q-10 10 -24 10q-22 0 -30 -31.5t-8 -127.5v-102z" />
<glyph unicode="e" horiz-adv-x="1132" d="M20 547.5q0 269.5 169 427.5q156 147 395 147t383.5 -131.5t144.5 -323.5q0 -171 -119 -258q-110 -82 -300 -82q-142 0 -240 59q-8 -6 -8 -22q0 -30 79 -55q79 -27 179.5 -27t183 25.5t132.5 60.5q24 -21 38.5 -77.5t14.5 -103t-9 -82.5q-78 -66 -160 -94 q-116 -42 -282 -42q-277 0 -437 154q-164 155 -164 424.5zM544 663q28 -17 64 -17q50 0 50 38q0 36 -53 36t-61 -57z" />
<glyph unicode="f" horiz-adv-x="936" d="M12 882q0 122 58 211h87q24 166 130 254t282 88q126 0 219 -36t136 -82q10 -33 10 -80v-19q0 -103 -30 -181q-69 -27 -193 -27q-51 0 -111.5 7t-89.5 14q-7 -7 -7 -20q0 -17 48 -31.5t155.5 -14.5t176.5 12q7 -16 13.5 -60.5t6.5 -87.5q0 -92 -34 -152h-185v-621 q-109 -69 -258 -69q-119 0 -190 43q-79 45 -79 133v469h31q50 0 50 33q0 4 -2 12h-166q-58 83 -58 205z" />
<glyph unicode="g" horiz-adv-x="1129" d="M17 713q0 192 144 303t374 111q111 0 214 -37v70q59 23 156.5 23t148.5 -33q62 -40 62 -141q0 -56 -11.5 -90t-33.5 -71q26 -66 26 -164q0 -177 -125.5 -274.5t-337.5 -97.5q-64 0 -109 9q-3 -9 -3 -17q0 -22 31.5 -29.5t80.5 -7.5q156 0 266 46q108 -28 168 -122 q49 -77 49 -181q0 -185 -157 -288t-404.5 -103t-382.5 88q-125 80 -125 208q0 49 23 94.5t53 62.5q50 -42 147.5 -68t200.5 -26t132.5 8t29.5 28q0 10 -6 20q-50 -11 -125 -11q-193 0 -303 55q-134 66 -134 199q0 52 21 96.5t62 66.5q-55 34 -93.5 103t-38.5 170zM545 620 q8 -7 24 -7t22 12t6 44v48q0 36 -27 36q-25 0 -25 -30v-103z" />
<glyph unicode="h" horiz-adv-x="1146" d="M37 194v1167q48 28 115.5 46t136.5 18q115 0 190 -45q85 -53 85 -152v-95q-87 -5 -167 -50q-69 -40 -69 -73q0 -11 8 -19.5t19 -10.5q42 49 118.5 82t181.5 33t189 -32q106 -40 167 -122q73 -100 73 -251l-3 -195q0 -72 16 -116t56 -69q1 -5 1 -19v-18 q0 -138 -79.5 -214.5t-205 -76.5t-203.5 71q-91 81 -91 246q0 70 6.5 123.5t9 76.5t5.5 43t3 59t-10.5 56t-29 17t-32.5 -8l13 -163q-18 -101 -18 -214t51 -206q-98 -101 -275 -101q-101 0 -175 53q-86 60 -86 159z" />
<glyph unicode="i" horiz-adv-x="611" d="M7 1207q0 126 83 206t203.5 80t202 -81.5t81.5 -204.5q0 -99 -62 -173.5t-151 -93.5q0 -38 29 -38q51 0 104 40q40 -31 49 -42v-396q0 -149 72 -194q1 -5 1 -19v-18q0 -147 -80 -221q-74 -70 -197.5 -70t-203.5 70q-101 89 -101 260v650q18 13 39 21t44 20 q-43 22 -78 76.5t-35 127.5z" />
<glyph unicode="j" horiz-adv-x="621" d="M-105 -103q0 45 12 86.5t25 61.5q58 13 135 13t175 -24q7 -3 23 -3q26 0 26 34q-121 35 -203 35q-42 75 -42 198v664q18 13 39 21t44 20q-43 22 -78 76.5t-35 127.5q0 126 83 206t203.5 80t202 -81.5t81.5 -204.5q0 -99 -62 -173.5t-151 -93.5q0 -38 29 -38q51 0 104 40 q1 0 4.5 -2.5t22 -14.5t40.5 -34v-824q0 -221 -109 -335q-98 -101 -251.5 -101t-235.5 71t-82 195z" />
<glyph unicode="k" horiz-adv-x="1134" d="M37 194v1167q48 28 115.5 46t136.5 18q115 0 190 -45q85 -53 85 -152v-106q0 -133 -47 -260q-9 -13 -32 -37.5t-36.5 -44.5t-13.5 -34.5t24 -26.5q78 73 122.5 159t81.5 228q13 2 30 5t56.5 9.5t55.5 6.5q154 0 240 -70.5t86 -193.5t-78 -211q-72 -79 -187 -119 q92 -54 232 -77q54 -98 54 -208.5t-70 -184.5q-78 -81 -215.5 -81t-226 105.5t-106.5 288.5l-48 -21q0 -67 26 -143q22 -72 61 -128q-99 -102 -275 -102q-101 0 -175 53q-86 60 -86 159z" />
<glyph unicode="l" horiz-adv-x="611" d="M37 322v1039q105 64 240.5 64t202 -57.5t66.5 -160.5v-703q0 -149 72 -194q1 -5 1 -19v-18q0 -143 -72.5 -217t-205.5 -74t-211 74q-93 88 -93 266z" />
<glyph unicode="m" horiz-adv-x="1716" d="M-13 882.5q0 121.5 59 210.5h241q71 0 121 -53q-44 -41 -44 -68q0 -31 35 -31q44 76 121 121q90 51 211 51q92 0 161.5 -39t103.5 -90q47 64 122.5 96.5t157.5 32.5q181 0 281 -112q98 -112 98 -307l-4 -199q0 -73 16 -119t56 -71q1 -5 1 -17v-15q0 -137 -80 -214 t-206.5 -77t-203.5 69q-91 80 -91 245v316q0 67 -44 67q-17 0 -27 -8l18 -149v-226q0 -136 45 -206q-48 -51 -119.5 -79.5t-145.5 -28.5q-120 0 -186 58q-80 70 -80 221v351q0 67 -44 67q-17 0 -27 -8l18 -149v-265q0 -112 30 -173q-98 -101 -275 -101q-105 0 -177 53 q-83 61 -83 164v478q-59 83 -59 204.5z" />
<glyph unicode="n" horiz-adv-x="1155" d="M-13 882.5q0 121.5 59 210.5h178q71 0 121 -53q-44 -41 -44 -68q0 -31 35 -31q44 76 134.5 126t205.5 50q173 0 281 -85q136 -107 136 -332l-3 -205q0 -72 16 -116t56 -69q1 -5 1 -19v-18q0 -138 -79.5 -214.5t-205 -76.5t-203.5 71q-91 81 -91 246q0 70 6.5 123.5 t9 76.5t5.5 43t3 59t-10.5 56t-29 17t-32.5 -8l13 -163q-18 -101 -18 -214t51 -206q-98 -101 -275 -101q-101 0 -175 53q-86 60 -86 159v484q-59 83 -59 204.5z" />
<glyph unicode="o" horiz-adv-x="1160" d="M20 542.5q0 270.5 154.5 427t405.5 156.5t406 -163q154 -163 154 -424.5t-148.5 -415.5t-403.5 -154t-404 145q-164 158 -164 428.5zM549 716q9 -99 9 -159v-175q7 -7 23 -7t23 11t7 38v143q0 96 -8 127.5t-30 31.5q-14 0 -24 -10z" />
<glyph unicode="p" horiz-adv-x="1136" d="M-13 883q0 50 16 109t43 101h142q87 0 133 -24q-82 -61 -82 -98q0 -30 35 -30q60 94 141 139.5t195 45.5t208 -36q129 -51 204 -164q94 -143 94 -375q0 -261 -139.5 -405.5t-386.5 -144.5q-138 0 -215 34q-7 -4 -7 -17q0 -30 46.5 -43t160.5 -19v-266q-103 -46 -226 -46 q-145 0 -219 53q-84 57 -84 175v805q-59 83 -59 206zM549 699q9 -99 9 -159v-134q7 -7 23 -7t23 11t7 38v102q0 96 -8 127.5t-30 31.5q-14 0 -24 -10z" />
<glyph unicode="q" horiz-adv-x="1138" d="M20 549q0 204 92 343q79 121 222 181q125 53 276 53q183 0 334 -72q69 -33 108.5 -74t39.5 -82v-674q-16 4 -56 4q-98 0 -160 -46q-53 -38 -53 -78q0 -26 34 -26q57 100 181 100q95 0 158 -77q43 -50 80 -141l-192 -191q-79 -79 -143.5 -111.5t-148.5 -32.5t-136 22.5 t-74 49.5l-30 302q-235 13 -374 145q-158 148 -158 405zM547 458q0 -27 7 -38t23 -11t23 7v134q0 98 9 159q-10 10 -24 10q-22 0 -30 -31.5t-8 -127.5v-102z" />
<glyph unicode="r" horiz-adv-x="949" d="M-13 882.5q0 121.5 59 210.5h153q118 0 169 -76q-25 -28 -44 -71t-19 -61.5t9.5 -27.5t27.5 -9q35 139 133 204q81 55 200 55q148 0 232 -63q30 -80 30 -195.5t-46 -209.5q-34 -18 -94 -30.5t-121 -12.5t-109.5 8.5t-70.5 15.5q-8 -8 -8 -23t19.5 -22.5t65.5 -16.5v-502 q-109 -69 -258 -69q-119 0 -190 43q-79 45 -79 133v515q-59 83 -59 204.5z" />
<glyph unicode="s" horiz-adv-x="1043" d="M12 728q0 173 129 280q143 118 393 118q123 0 229.5 -26t182.5 -69q19 -41 19 -121q0 -122 -67 -187q-51 28 -124.5 46.5t-132.5 18.5t-74 -4q-26 -8 -26 -31v-5q0 -5 1 -6q11 1 29 1h24q114 0 213.5 -34.5t162.5 -110.5q70 -86 70 -217q0 -204 -141 -308t-377 -104 t-369.5 78t-133.5 229q0 56 24 102.5t54 65.5q55 -46 159.5 -79.5t221.5 -33.5q47 0 47 26q0 12 -3 20q-7 -1 -17 -1h-11q-212 0 -339 84q-144 95 -144 268z" />
<glyph unicode="t" horiz-adv-x="887" d="M12 833.5q0 86.5 13 140.5q57 36 157 110q28 68 73 216q6 20 14 39q78 20 178 20t197 -21v-245h173q58 -88 58 -207q0 -54 -15 -111t-43 -97h-143v-151q0 -128 107 -128h43q21 -76 21 -132q0 -138 -86.5 -211.5t-251 -73.5t-262 91.5t-97.5 269.5v289h62q50 0 50 33 q0 4 -2 12h-224q-22 70 -22 156.5z" />
<glyph unicode="u" horiz-adv-x="1149" d="M-13 874q0 55 14 114t45 105h220q124 0 194.5 -58.5t70.5 -177.5v-324q0 -97 37 -97q12 0 26 10q-10 33 -10 103v494q106 64 255 64q84 0 147.5 -22.5t97.5 -59.5v-521q0 -149 72 -194q1 -5 1 -19v-18q0 -146 -77 -221q-70 -70 -193 -70q-77 0 -139.5 35t-93.5 102 q-34 0 -34 -33q0 -23 23 -46q-32 -26 -77 -42t-132.5 -16t-170.5 36q-103 44 -158 135q-67 108 -67 274v251q-51 89 -51 196z" />
<glyph unicode="v" horiz-adv-x="1046" d="M-58 880q0 124 60 213h249q131 0 195 -74q48 -56 62 -163q-20 -186 -20 -367v-24q0 -17 1 -24q12 -5 23 -5q29 0 29 39q0 102 24 384q13 153 16 180q94 63 225.5 63t203.5 -70q64 -64 64 -166q0 -69 -19 -143q-93 -359 -185 -565q-49 -107 -149 -146q-74 -30 -211 -30 q-73 0 -144.5 12t-109.5 28q-145 296 -239 655q-31 31 -53 87t-22 116z" />
<glyph unicode="w" horiz-adv-x="1565" d="M-27 885q0 121 60 210h242q142 0 198 -67q43 -52 43 -168l-7 -303q0 -58 5 -78q6 -32 33 -32h9q3 0 9 2q-3 27 -3 78t5 167t5 338q99 68 227 68q100 0 165.5 -39t90.5 -111q0 -34 -7 -139q-21 -251 -61 -380q11 -6 23.5 -6t19.5 8q29 33 55 238q21 200 26 307q1 38 3 58 q38 29 101.5 46.5t132.5 17.5q117 0 191 -64.5t74 -172.5q0 -80 -32 -219t-87 -295.5t-89 -218.5q-48 -86 -114.5 -117t-205.5 -31q-42 0 -109 9t-92 19q-21 34 -49.5 100t-40.5 102q-38 -6 -38 -33q0 -8 13 -44.5t19 -49.5q-3 -6 -15 -31.5t-26 -44.5q-77 -27 -222.5 -27 t-248.5 41q-80 110 -138.5 263t-98.5 392q-66 86 -66 207z" />
<glyph unicode="x" horiz-adv-x="1129" d="M0 276q0 165 174 276q25 16 104 52q-8 26 -34 26q-39 0 -92 -40q-54 33 -98.5 103t-44.5 151q0 135 91 212q85 70 228 70q60 0 138 -26q4 -7 11.5 -21.5t18.5 -35.5t18 -34.5t21.5 -41t19 -37t10.5 -21t9 -17.5l64 209q34 12 86 18.5t90 6.5q143 0 220 -79t77 -200 t-89 -213q-75 -78 -196 -117q0 -34 34 -34q29 0 100 38q26 -38 71 -98t98 -132q-4 -141 -82 -225t-196.5 -84t-192.5 63t-106 169l-80 -193q-69 -40 -174 -40q-125 0 -211.5 80.5t-86.5 214.5z" />
<glyph unicode="y" horiz-adv-x="1094" d="M-28 884q0 120 60 209h257q129 0 193 -74q47 -55 60 -161q-22 -174 -22 -353v-23q0 -16 1 -23q10 -5 22 -5q29 0 29 44q0 147 16.5 305.5t35.5 244.5q81 59 216 59t208.5 -52.5t73.5 -126.5q0 -31 -37 -256q-41 -229 -105 -482q-13 -51 -46.5 -143t-71.5 -153 q-119 -189 -294 -234q-82 -21 -165 -21q-161 0 -249 80q-81 72 -81 178.5t63 200.5q15 4 55 4t100 -10q166 -31 169 -31q7 -1 15.5 -2.5t22.5 -1.5t24 8t10 32l-236 45q-87 36 -151 151q-79 142 -107 385q-66 86 -66 206z" />
<glyph unicode="z" horiz-adv-x="993" d="M-11 290q0 72 26 171q91 101 258 229q33 26 74 61q-6 23 -27 23q-4 0 -14 -2q-29 -9 -121 -95h-124q-59 97 -59 208q0 70 22 124t54 84h825q65 -95 65 -256q0 -27 -8 -78.5t-19 -82.5q-93 -128 -223 -216q-128 -6 -187.5 -26t-59.5 -45q0 -16 11 -24q42 23 116 36.5 t142 13.5h193q26 -45 42 -100.5t16 -97.5q0 -116 -63 -172q-50 -45 -137 -45h-713q-89 93 -89 290z" />
<glyph unicode="{" horiz-adv-x="646" d="M-10 638.5q0 125.5 28 191.5q101 2 101 137v147q0 123 75 185.5t186 62.5q140 0 246 -72q-25 -71 -25 -250v-195q0 -84 -30.5 -128.5t-82.5 -66.5q-36 21 -72.5 21t-40.5 -32q98 -20 147 -63q67 -59 67 -168v-151q0 -192 22 -258q-106 -72 -246 -72q-111 0 -186 62.5 t-75 185.5v140q0 72 -19 106t-65 35q-30 57 -30 182.5z" />
<glyph unicode="|" horiz-adv-x="520" d="M35 -13l1 1469q30 22 87 41t125 19q122 0 179.5 -45t57.5 -125v-1469q-31 -25 -88.5 -47.5t-124.5 -22.5q-122 0 -179.5 48.5t-57.5 131.5z" />
<glyph unicode="}" horiz-adv-x="646" d="M20 1290q106 72 246 72q111 0 186 -62.5t75 -185.5v-147q0 -135 101 -137q28 -66 28 -191.5t-30 -182.5q-46 -1 -65 -35t-19 -106v-140q0 -123 -75 -185.5t-186 -62.5q-140 0 -246 72q22 66 22 258v151q0 109 67 168q49 43 147 63q-4 32 -40.5 32t-72.5 -21 q-113 44 -113 195v195q0 177 -25 250z" />
<glyph unicode="~" horiz-adv-x="1001" d="M30 575q0 112 77.5 178.5t209 66.5t263.5 -44q35 -11 81 -25h283q27 -94 27 -206.5t-77 -178.5t-210 -66t-271 46q-27 9 -73 23h-283q-27 94 -27 206z" />
<glyph unicode="&#xa1;" horiz-adv-x="678" d="M50 1159q0 117 85 201t204.5 84t204 -84.5t84.5 -202.5q0 -80 -40.5 -147.5t-107.5 -106.5q60 -104 96 -242.5t36 -276.5v-326q-40 -29 -104.5 -48.5t-140.5 -19.5q-149 0 -216 76t-67 254v64q0 234 106 465q52 -23 90 -23q42 0 42 40q-115 8 -193.5 92t-78.5 201z" />
<glyph unicode="&#xa2;" horiz-adv-x="1086" d="M2 559q0 224 121 372q110 133 291 178q0 35 -28 35q-16 0 -47 -10t-55 -22v102q31 42 102.5 68.5t153.5 26.5q127 0 202 -52t75 -156v-22q230 -105 230 -336q0 -119 -75.5 -195.5t-198.5 -76.5q-100 0 -166.5 53.5t-78.5 139.5q-44 0 -44 -32q0 -73 72 -134 q83 -72 207 -72q66 0 124 20t92 48q58 -89 58 -203t-98 -206t-257 -96v-8q0 -34 40.5 -34t94.5 18v-74q-84 -95 -260 -95q-121 0 -197 53t-76 155v48q-129 69 -205.5 201.5t-76.5 305.5z" />
<glyph unicode="&#xa3;" horiz-adv-x="1077" d="M22 631.5q0 116.5 34 207.5h100q23 -78 64 -78q13 0 21 8q-59 79 -59 192q0 173 133 266q117 82 293.5 82t275 -79.5t98.5 -196.5q0 -66 -39.5 -112t-113.5 -46h-33q-15 50 -69 50q-38 0 -55 -18.5t-17 -37.5t8 -30h370q29 -78 29 -149t-13 -130.5t-31 -94.5 q-70 44 -208 44q-97 0 -189 -44q-37 -19 -60 -40.5t-23 -39.5t18 -29q46 46 92 70q73 38 174 38q142 0 228 -79q75 -71 75 -173q0 -174 -140 -247q-52 19 -106.5 25.5t-137.5 6.5h-630q-54 81 -54 221q0 76 15 149q64 4 91 22t27 37h-122q-46 89 -46 205.5z" />
<glyph unicode="&#xa4;" horiz-adv-x="1151" d="M10 360l46 44q-43 105 -43 239.5t41 242.5l-44 42q24 102 97 179.5t166 114.5l60 -49q112 44 238 44t238 -50l69 55q93 -37 166 -114.5t97 -179.5l-60 -57q40 -105 40 -230t-37 -227l57 -54q-23 -98 -97 -175q-68 -73 -163 -109l-71 52q-109 -43 -237 -43t-236 41 l-67 -50q-93 36 -165 112t-95 172zM543 563q0 -51 7 -66.5t22 -15.5t21 16q5 18 5 66v163q0 47 -5 64q-6 15 -21.5 15t-22 -14.5t-6.5 -65.5v-162z" />
<glyph unicode="&#xa5;" horiz-adv-x="1125" d="M-48 1189q48 46 126 78t183 32q134 0 219 -53q15 -36 27.5 -86t38.5 -179q-7 -35 -40 -183q-2 -11 -4 -22.5t-5 -23.5t-3 -28q0 -32 33 -32q26 85 93 402q11 49 33 139q29 29 92 52.5t137 23.5q132 0 211.5 -68t79.5 -182q0 -152 -129 -333l-75 -102h60q29 -78 29 -178 t-39 -174h-284v-9q0 -21 12.5 -28.5t45.5 -7.5h40v-156q-92 -92 -259 -92q-130 0 -198 52q-73 54 -73 164v77h-203q-39 74 -39 174t29 178h123q1 2 1 14t-9 20t-20 9.5t-30 1.5h-40q-163 198 -163 520z" />
<glyph unicode="&#xa6;" horiz-adv-x="530" d="M40 -13l1 624q50 36 128 52q-129 35 -129 167v626q33 23 89 41.5t124 18.5q122 0 179.5 -45t57.5 -125v-626q-51 -42 -131 -61q131 -34 131 -158v-624q-31 -25 -88.5 -47.5t-124.5 -22.5q-122 0 -179.5 48.5t-57.5 131.5z" />
<glyph unicode="&#xa7;" horiz-adv-x="1055" d="M2 508q0 74 30.5 127t63.5 66q106 -98 401 -179q175 -47 292 -95q138 -59 193 -153q29 -50 29 -119q0 -159 -114 -260q-137 -122 -402 -122q-131 0 -232 27.5t-166 63.5q-19 41 -19 107.5t18.5 112.5t44.5 65q111 -67 278 -67q43 0 63 10.5t20 22.5t-1 15q-13 -1 -33 -1 h-34q-180 0 -295 83q-137 99 -137 296zM44 926q0 159 114 260q137 122 402 122q233 0 398 -91q19 -41 19 -107.5t-18.5 -112.5t-44.5 -65q-111 67 -278 67q-43 0 -63 -10.5t-20 -26.5q0 -8 1 -11q13 1 33 1h34q181 0 296 -83q136 -98 136 -286q0 -58 -27.5 -114.5 t-66.5 -84.5q-83 74 -251 131q-64 21 -151 46q-181 49 -291 95q-137 56 -193 152q-29 50 -29 118z" />
<glyph unicode="&#xa8;" horiz-adv-x="714" d="M10 1508.5q0 78.5 54.5 135t133.5 56.5q101 0 159 -86q59 86 157 86q78 0 134 -56t56 -134.5t-52 -133t-136 -54.5q-103 0 -157 79q-53 -81 -159 -81q-84 0 -137 55t-53 133.5z" />
<glyph unicode="&#xa9;" horiz-adv-x="1309" d="M10 651.5q0 225.5 91 385.5q80 141 232 219q140 70 313 70q297 0 475 -184t178 -486q0 -339 -185 -513q-167 -158 -450 -158q-176 0 -324.5 70.5t-233.5 212.5q-96 158 -96 383.5zM432 652.5q0 -128.5 80 -198.5q67 -60 167 -60q79 0 127 25t48 47.5t-23 30.5 q-61 -58 -146 -58t-139 57q-59 59 -59 162t56 158.5t142 55.5t142 -46q14 12 14 24q0 25 -44 46t-116 21q-109 0 -179 -68t-70 -196.5z" />
<glyph unicode="&#xaa;" horiz-adv-x="696" d="M8 762.5q0 116.5 80 174.5t193 58q60 0 90 -10q4 5 4 15q0 20 -21.5 30t-75.5 10q-99 0 -171 -37q-47 50 -47 131q0 52 11 78q126 56 269 56q167 0 251.5 -75t84.5 -215v-120q0 -98 49 -128q1 -3 1 -9v-9q0 -95 -45.5 -147.5t-138.5 -52.5q-49 0 -87.5 22t-52.5 64 q-29 0 -29 -25q0 -15 14 -41q-45 -20 -109 -20q-123 0 -195 67q-75 67 -75 183.5zM314 789.5q0 -24.5 32 -24.5q45 0 45 49h-49q-28 0 -28 -24.5z" />
<glyph unicode="&#xab;" horiz-adv-x="1261" d="M15 650q0 118 36 215l454 351q114 -34 176 -130q48 -78 48 -173q0 -68 -13 -125l-255 -177v-7q0 -23 30 -23q17 0 77 35l39 -21q72 -40 113.5 -100.5t41.5 -121.5q0 -105 -83 -193q-64 -66 -149 -107l-464 352q-23 38 -37 100t-14 125zM613 650l155 112q16 76 16 159 q0 45 -8 77l218 155q114 -34 176 -130q48 -78 48 -173q0 -57 -13 -115l-205 -134v-7q0 -9 7 -16.5t21.5 -7.5t34 9t62.5 37q58 -27 89.5 -93.5t31.5 -132.5q0 -108 -90 -193q-71 -68 -156 -97l-205 162q21 51 21 112q0 160 -203 276z" />
<glyph unicode="&#xac;" horiz-adv-x="1300" d="M20 701q0 122 58 211h959q115 0 168 -54.5t53 -146.5l2 -485q-71 -45 -131 -61t-129 -16q-125 0 -198.5 47.5t-73.5 142.5v105h78q31 0 31 27q0 17 -7 25h-752q-58 83 -58 205z" />
<glyph unicode="&#xad;" horiz-adv-x="741" d="M20 610q0 72 21 130.5t62 119.5h534q44 -64 64 -121t20 -128.5t-20.5 -128t-63.5 -116.5h-534q-83 114 -83 244z" />
<glyph unicode="&#xae;" horiz-adv-x="744" d="M10 930q0 188 108 289q96 90 256 90t260 -103t100 -273q0 -191 -104 -288q-93 -89 -250 -89t-256 87q-114 99 -114 287zM267 800q0 -15 18 -15q12 0 19 6v107q38 -2 67 -2h9q5 0 8 1l60 -80q25 -32 38.5 -32t21 5.5t7.5 13.5l-91 97q83 16 83 90q0 106 -135 106 q-30 0 -67.5 -7.5t-37.5 -12.5v-277zM304 930v127q33 7 66 7q96 0 96 -72q0 -65 -95 -65q-51 0 -67 3z" />
<glyph unicode="&#xaf;" horiz-adv-x="738" d="M20 1438q0 97 61 188h576q61 -95 61 -188t-61 -188h-576q-61 91 -61 188z" />
<glyph unicode="&#xb0;" horiz-adv-x="654" d="M10 990.5q0 158.5 100 245.5q84 73 223 73t225 -86q86 -88 86 -239t-87.5 -231t-224.5 -80t-222 74q-100 85 -100 243.5zM299 990.5q0 -50.5 7 -66t22 -15.5t21 16q5 18 5 66t-5 66q-6 16 -22 16t-21 -15q-7 -17 -7 -67.5z" />
<glyph unicode="&#xb1;" horiz-adv-x="1030" d="M10 793.5q0 68.5 18.5 122t61.5 117.5h209q28 0 37.5 7.5t9.5 26.5v10h-74v133q83 98 239 98q117 0 183.5 -55.5t66.5 -161.5v-58h178q45 -67 63 -119t18 -120.5t-19.5 -122.5t-61.5 -112h-207v-139q-32 -50 -91 -74t-119 -24q-102 0 -162 48t-60 150v39h-210 q-42 57 -61 111.5t-19 123zM20 233q0 69 18 121.5t62 117.5h153q8 -82 77 -138.5t193 -56.5q186 0 259 128v67h147q81 -115 81 -242t-81 -230h-829q-80 106 -80 233z" />
<glyph unicode="&#xb2;" horiz-adv-x="719" d="M4 1057q0 117 94 189t259 72t259.5 -88t94.5 -223q0 -101 -72 -171t-189 -90q-1 -2 -1 -9q0 -26 30 -26t88.5 27.5t87.5 57.5q58 -59 58 -157.5t-57 -155.5h-587q-50 74 -50 163t35 149q128 20 224 75q117 68 117 152q0 22 -12.5 33.5t-29 11.5t-28.5 -10t-12 -32t23 -46 q-33 -45 -78 -70.5t-139 -58.5q-115 72 -115 207z" />
<glyph unicode="&#xb3;" horiz-adv-x="760" d="M0 722q0 67 39 109.5t115 42.5h23q10 -1 23 -1q6 -70 58 -113t118 -43q42 0 42 28q0 5 -2 15q-10 -2 -14 -2h-11q-62 0 -103 38t-41 99t41 99t103 38h11q4 0 14 -2q2 10 2 15q0 28 -42 28q-62 0 -113 -38t-62 -103q-75 0 -127 33q-66 42 -66 125q0 101 98 165 q101 64 269.5 64t266.5 -74.5t98 -195.5q0 -73 -47 -120q-34 17 -52 17t-25 -6.5t-7 -15t5 -20.5q54 0 97 -43q49 -51 49 -136q0 -131 -103.5 -198.5t-275 -67.5t-276.5 71.5t-105 191.5z" />
<glyph unicode="&#xb4;" horiz-adv-x="625" d="M20 1324l226 328q77 54 165.5 54t141 -54.5t52.5 -125t-45 -115.5q-35 -35 -108 -62l-348 -127q-29 11 -52.5 39.5t-31.5 62.5z" />
<glyph unicode="&#xb5;" horiz-adv-x="1164" d="M2 888q0 55 14 114t45 105h220q124 0 194.5 -58.5t70.5 -177.5v-338q0 -56 11 -76.5t24.5 -20.5t27.5 10q-10 33 -10 103v508q106 64 255 64q84 0 147.5 -22.5t97.5 -59.5v-535q0 -149 72 -194q1 -5 1 -19v-18q0 -145 -70.5 -218t-189.5 -73q-62 0 -94 22q36 16 36 35 t-17 31q-37 -29 -99.5 -49.5t-144.5 -20.5t-125 14q-8 -14 -8 -24q0 -19 29.5 -27t92.5 -8v-205q-102 -76 -243.5 -76t-210.5 53q-75 55 -75 175q0 53 11 126.5t19 93.5q34 -37 62 -37t28 26q0 4 -2 12q-118 57 -118 278v291q-51 89 -51 196z" />
<glyph unicode="&#xb6;" horiz-adv-x="1144" d="M18 887.5q0 184.5 112 302t314 117.5h75v-825h-69q-199 0 -315.5 110.5t-116.5 295zM574 -147v1456h528v-1340q0 -101 -80 -153q-73 -49 -193 -49q-156 0 -255 86z" />
<glyph unicode="&#xb7;" horiz-adv-x="573" d="M50 656.5q0 97.5 69 168.5q69 69 166.5 69t168.5 -69q69 -71 69 -168.5t-69 -166.5q-71 -69 -168.5 -69t-166.5 69t-69 166.5z" />
<glyph unicode="&#xb8;" horiz-adv-x="615" d="M20 -191q0 95 75 139q32 -15 73 -15q57 0 57 33q0 16 -9.5 26t-37.5 16l-45 9v62q0 69 42 109.5t113.5 40.5t111.5 -40t40 -102v-24q73 -30 109 -75q46 -58 46 -140q0 -119 -93 -184q-80 -57 -205 -57t-201 53.5t-76 148.5z" />
<glyph unicode="&#xb9;" horiz-adv-x="550" d="M-40 1011q0 67 26 121q9 2 25 6.5t28.5 7.5t23.5 6q81 19 135 66q31 26 59 72h153q66 0 98 -26.5t32 -99.5v-612q-72 -76 -203 -76q-100 0 -155.5 40t-55.5 121v127q48 0 80 10.5t32 29.5t-7 29q-45 -17 -99 -17q-72 0 -122 50t-50 145z" />
<glyph unicode="&#xba;" horiz-adv-x="773" d="M10 892q0 189 118 290q103 87 267 87t266 -102t102 -282.5t-104.5 -275.5t-266 -95t-263.5 88q-119 101 -119 290zM372 794q5 -4 15 -4q23 0 30.5 23t7.5 83.5t-11 85.5q-5 14 -21 14q-21 0 -21 -23v-179z" />
<glyph unicode="&#xbb;" horiz-adv-x="1249" d="M15 861q0 81 47 161q56 97 164 129l243 -167q-9 -22 -9 -81t18 -137l181 -131q-110 -64 -154.5 -124.5t-44.5 -137.5q0 -47 18 -98l-223 -174q-76 24 -145 90q-84 79 -84 181.5t156 189.5l99 54q0 36 -30 36q-11 0 -21 -6l-36 -17l-166 106q-13 45 -13 126zM511 373 q0 118 168 211l140 78q0 36 -31 36q-16 0 -41 -16l-40 -22l-180 128q-13 58 -13 125q0 95 49 173q60 96 175 130l460 -356q36 -97 36 -215q0 -63 -14 -125t-37 -100l-426 -337q-85 29 -156 97q-90 85 -90 193z" />
<glyph unicode="&#xbc;" horiz-adv-x="1486" d="M-18 1091q0 70 29 132q13 4 84 22q137 32 213 151h167q75 0 106 -25q39 -33 39 -111v-134l-81 -171q-6 -11 -6 -23q0 -28 36 -33l228 480q64 39 164.5 39t187 -47.5t97.5 -110.5l-159 -337h-47q-39 0 -39 -35v-7q0 -6 1 -9h180q80 0 133 -32q64 -39 64 -114v-264 q-50 0 -50 -29v-8q0 -3 2 -13h107q26 -70 26 -160q0 -126 -85 -146v-81q-82 -54 -204 -54q-77 0 -122 12.5t-86 37.5v44h26q34 0 34 29q0 9 -5 19h-175q-149 0 -185 131q-34 -1 -34 -38t39 -72l-93 -202q-60 -38 -163 -38t-188.5 46t-97.5 112l190 413q40 -8 80 -8 q69 0 69 36q0 9 -3 16q-29 -5 -66 -5q-109 0 -169.5 44t-60.5 132v140q54 0 88.5 11t34.5 32q0 25 -8 33q-47 -19 -108 -19q-81 0 -135.5 55t-54.5 159zM988 416l1 -16h76v86h-17q-17 -27 -60 -70z" />
<glyph unicode="&#xbd;" horiz-adv-x="1521" d="M-18 1091q0 70 29 132q13 4 84 22q137 32 213 151h167q75 0 106 -25q39 -33 39 -111v-134l-81 -171q-6 -11 -6 -23q0 -28 36 -33l228 480q64 39 164.5 39t187 -47.5t97.5 -110.5l-155 -308q-95 0 -95 -32q0 -13 3 -19q45 9 97 9q183 0 293 -100q107 -101 107 -255 q0 -108 -81 -184t-210 -83l-3 -15q0 -23 28 -23q46 0 105 22.5t100 57.5q26 -23 45 -69t19 -85q0 -124 -62 -186h-644q-43 85 -51 183l106 233q30 -8 70 -8q108 0 171 58q52 46 52 102q0 28 -28 28q-6 0 -15 -3q-32 -140 -192 -140q-47 0 -85 20l-247 -531q-60 -38 -163 -38 t-188.5 46t-97.5 112l190 413q40 -8 80 -8q69 0 69 36q0 9 -3 16q-29 -5 -66 -5q-109 0 -169.5 44t-60.5 132v140q54 0 88.5 11t34.5 32q0 25 -8 33q-47 -19 -108 -19q-81 0 -135.5 55t-54.5 159z" />
<glyph unicode="&#xbe;" horiz-adv-x="1577" d="M12 757q0 74 42 120t127 46h24q10 -1 25 -1q12 -74 68 -120t118 -46q26 0 26 26q0 7 -3 16q-67 5 -112.5 43.5t-45.5 106.5t52 114q50 42 123 42l3 15q0 28 -37 28q-65 0 -122 -45.5t-70 -129.5q-7 -1 -28 -1h-27q-73 0 -113 48t-40 118q0 119 107.5 195t290.5 76 q114 0 214.5 -47.5t128.5 -125.5l-87 -180q-7 -15 -7 -25q0 -29 39 -31l180 380q64 39 164.5 39t187 -47.5t97.5 -110.5l-159 -337h-47q-39 0 -39 -35v-7q0 -6 1 -9h180q80 0 133 -32q64 -39 64 -114v-264q-50 0 -50 -29v-8q0 -3 2 -13h107q26 -70 26 -160q0 -126 -85 -146 v-81q-82 -54 -204 -54q-77 0 -122 12.5t-86 37.5v44h26q34 0 34 29q0 9 -5 19h-195q-146 0 -182 131q-37 0 -37 -36q0 -21 14.5 -48.5t32.5 -41.5l-81 -186q-60 -38 -163 -38t-188.5 46t-97.5 112l177 376q14 -2 27 -2q69 0 95 13.5t26 32.5q0 8 -3 15q-63 -16 -118 -16 q-180 0 -294 77.5t-114 208.5zM1079 426l1 -16h76v86h-17q-17 -27 -60 -70z" />
<glyph unicode="&#xbf;" horiz-adv-x="1003" d="M-40 133q0 123 58 226q48 88 122 151.5t154 101.5q28 -27 61 -42.5t52.5 -15.5t27 6.5t8.5 25.5q-90 24 -147 97t-57 172q0 115 85 196t204.5 81t204 -81.5t84.5 -195.5q0 -98 -55 -169q65 -65 65 -153q0 -106 -55 -165.5t-192 -117.5q-59 -26 -82.5 -48t-23.5 -49 q0 -49 39 -49q41 0 41 43q0 15 -3.5 23.5t-4.5 12.5q11 9 57 28q180 74 237 164q84 -25 143.5 -112.5t59.5 -193.5q0 -182 -153 -295t-380 -113q-270 0 -416 141q-134 130 -134 331z" />
<glyph unicode="&#xc0;" horiz-adv-x="1349" d="M14 202q0 26 5 46l213 952q80 51 191 80t231 29q172 0 294 -58q139 -66 169 -191l228 -943q-104 -135 -339 -135q-114 0 -193 41t-92 117l-22 122q60 1 116 23t56 46q0 16 -13 26q-38 -27 -93 -41t-102 -14q-135 0 -208 55q-10 -14 -10 -26q0 -29 54.5 -48.5t132.5 -24.5 q13 -144 28 -164q-19 -37 -105 -74.5t-194 -37.5q-143 0 -245 61.5t-102 158.5zM326 1404v105q0 82 41 134q49 63 150 63q70 0 119.5 -32.5t106.5 -105.5l201 -267q-127 53 -295 53q-67 0 -138 -11zM615 859l38 -202q8 -8 25 -8t29 7q-26 152 -35 180q-11 29 -33 29 q-10 0 -24 -6z" />
<glyph unicode="&#xc1;" horiz-adv-x="1349" d="M14 202q0 26 5 46l213 952q80 51 191 80t231 29q172 0 294 -58q139 -66 169 -191l228 -943q-104 -135 -339 -135q-114 0 -193 41t-92 117l-22 122q60 1 116 23t56 46q0 16 -13 26q-38 -27 -93 -41t-102 -14q-135 0 -208 55q-10 -14 -10 -26q0 -29 54.5 -48.5t132.5 -24.5 q13 -144 28 -164q-19 -37 -105 -74.5t-194 -37.5q-143 0 -245 61.5t-102 158.5zM381 1314l232 338q77 54 165.5 54t141 -54.5t52.5 -125t-41 -111.5t-129 -72q-61 11 -147 11q-144 0 -274 -40zM615 859l38 -202q8 -8 25 -8t29 7q-26 152 -35 180q-11 29 -33 29q-10 0 -24 -6 z" />
<glyph unicode="&#xc2;" horiz-adv-x="1349" d="M14 202q0 26 5 46l213 952q80 51 191 80t231 29q172 0 294 -58q139 -66 169 -191l228 -943q-104 -135 -339 -135q-114 0 -193 41t-92 117l-22 122q60 1 116 23t56 46q0 16 -13 26q-38 -27 -93 -41t-102 -14q-135 0 -208 55q-10 -14 -10 -26q0 -29 54.5 -48.5t132.5 -24.5 q13 -144 28 -164q-19 -37 -105 -74.5t-194 -37.5q-143 0 -245 61.5t-102 158.5zM308 1288l114 349q38 21 99.5 33.5t114.5 12.5q141 0 217 -39l125 -360q-119 65 -312 70q-13 40 -25 84q-22 0 -29.5 -8t-7.5 -24t10 -53q-169 -6 -306 -65zM615 859l38 -202q8 -8 25 -8t29 7 q-26 152 -35 180q-11 29 -33 29q-10 0 -24 -6z" />
<glyph unicode="&#xc3;" horiz-adv-x="1349" d="M14 202q0 26 5 46l213 952q130 85 322 105q136 -47 233 -47q63 0 95 19q199 -67 235 -217l228 -943q-104 -135 -339 -135q-114 0 -193 41t-92 117l-22 122q60 1 116 23t56 46q0 16 -13 26q-38 -27 -93 -41t-102 -14q-135 0 -208 55q-10 -14 -10 -26q0 -29 54.5 -48.5 t132.5 -24.5q13 -144 28 -164q-19 -37 -105 -74.5t-194 -37.5q-143 0 -245 61.5t-102 158.5zM376 1497q0 93 40 145q47 62 145 62q59 0 90 -8t40 -10.5t16.5 -5t24.5 -8.5t30 -10h200q10 -70 10 -157t-40 -139q-48 -63 -143 -63t-191 34q-26 9 -40 13q-140 -23 -170 -34 q0 1 -6 64.5t-6 116.5zM615 859l38 -202q8 -8 25 -8t29 7q-26 152 -35 180q-11 29 -33 29q-10 0 -24 -6z" />
<glyph unicode="&#xc4;" horiz-adv-x="1349" d="M14 202q0 26 5 46l213 952q80 51 191 80t231 29q172 0 294 -58q139 -66 169 -191l228 -943q-104 -135 -339 -135q-114 0 -193 41t-92 117l-22 122q60 1 116 23t56 46q0 16 -13 26q-38 -27 -93 -41t-102 -14q-135 0 -208 55q-10 -14 -10 -26q0 -29 54.5 -48.5t132.5 -24.5 q13 -144 28 -164q-19 -37 -105 -74.5t-194 -37.5q-143 0 -245 61.5t-102 158.5zM286 1514q0 73 54.5 129.5t133.5 56.5q101 0 159 -86q59 86 157 86q78 0 134 -56t56 -128t-36 -120t-95 -66q-85 20 -166 23q-29 19 -48 48q-20 -30 -50 -50q-85 -6 -159 -25q-63 15 -101.5 65 t-38.5 123zM615 859l38 -202q8 -8 25 -8t29 7q-26 152 -35 180q-11 29 -33 29q-10 0 -24 -6z" />
<glyph unicode="&#xc5;" horiz-adv-x="1349" d="M14 202q0 26 5 46l213 952q69 40 166 72q22 -34 60.5 -65t66.5 -31q25 0 28 31q-70 30 -112 94q-44 63 -44 143q0 107 75 182t182 75t182 -75t75 -182q0 -90 -56 -160q102 -27 171 -82.5t91 -141.5l228 -943q-104 -135 -339 -135q-114 0 -193 41t-92 117l-22 122 q60 1 116 23t56 46q0 16 -13 26q-38 -27 -93 -41t-102 -14q-135 0 -208 55q-10 -14 -10 -26q0 -29 54.5 -48.5t132.5 -24.5q13 -144 28 -164q-19 -37 -105 -74.5t-194 -37.5q-143 0 -245 61.5t-102 158.5zM615 859l38 -202q8 -8 25 -8t29 7q-26 152 -35 180q-11 29 -33 29 q-10 0 -24 -6z" />
<glyph unicode="&#xc6;" horiz-adv-x="1791" d="M14 202q0 26 5 46l213 952q80 51 191 80t231 29q156 0 248 -52q63 33 125 33h711q29 -48 43 -104.5t14 -101.5q0 -101 -39.5 -152t-110.5 -51h-403q-37 0 -37 -29v-8q0 -6 2 -8h478q18 -31 31 -78q12 -51 12 -91q0 -119 -44 -186h-217q-152 0 -205.5 -11.5t-67.5 -19.5 q-13 -9 -13 -23t14 -22q52 17 109 24q75 7 163 7h281q61 -86 61 -207q0 -68 -17 -130t-51 -100h-787q-107 0 -170 53q-57 46 -72 132l-13 78q60 1 116 23t56 46q0 16 -13 26q-38 -27 -93 -41t-102 -14q-135 0 -208 55q-10 -14 -10 -26q0 -29 54.5 -48.5t132.5 -24.5 q13 -144 28 -164q-19 -37 -105 -74.5t-194 -37.5q-143 0 -245 61.5t-102 158.5zM625 859l38 -202q8 -8 25 -8t29 7q-26 152 -35 180q-11 29 -33 29q-10 0 -24 -6z" />
<glyph unicode="&#xc7;" horiz-adv-x="1258" d="M12 657q0 317 200 500q88 82 205 123.5t246 41.5q252 0 413 -122t161 -301q0 -135 -83 -199.5t-225 -64.5q-78 0 -157 38.5t-94 72.5q0 82 3 129q-2 1 -7 1h-7q-15 0 -23.5 -8.5t-15 -35.5t-6.5 -147q0 -287 48 -287q10 0 18 5v91q68 46 190.5 75t238.5 29 q53 -54 88.5 -161.5t37.5 -194.5q-31 -60 -100 -115q-86 -70 -196 -109q-31 40 -67 63.5t-61 23.5q-36 0 -37 -32q155 -60 155 -225q0 -119 -93 -184q-80 -57 -205 -57t-201 53.5t-76 148.5t75 139q32 -15 73 -15q57 0 57 27q0 9 -6 15t-28 10q-243 43 -382 217t-139 455z " />
<glyph unicode="&#xc8;" horiz-adv-x="1112" d="M32 247v951q0 48 110 70t340 22h577q29 -48 43 -104.5t14 -101.5q0 -101 -39.5 -152t-110.5 -51h-403q-37 0 -37 -29v-8q0 -6 2 -8h478q18 -31 31 -78q12 -51 12 -91q0 -119 -44 -186h-217q-152 0 -206 -11.5t-67 -19.5q-13 -9 -13 -23t14 -22q52 17 109 24q75 7 163 7 h281q61 -86 61 -207q0 -68 -17 -130t-51 -100h-749q-124 0 -199 60q-82 64 -82 188zM243 1404v105q0 82 41 134q49 63 150 63q69 0 121.5 -33t104.5 -105q2 -2 38.5 -52.5t51 -69t32 -42.5t30.5 -41t21 -28h-385z" />
<glyph unicode="&#xc9;" horiz-adv-x="1112" d="M32 247v951q0 48 110 70t340 22h577q29 -48 43 -104.5t14 -101.5q0 -101 -39.5 -152t-110.5 -51h-403q-37 0 -37 -29v-8q0 -6 2 -8h478q18 -31 31 -78q12 -51 12 -91q0 -119 -44 -186h-217q-152 0 -206 -11.5t-67 -19.5q-13 -9 -13 -23t14 -22q52 17 109 24q75 7 163 7 h281q61 -86 61 -207q0 -68 -17 -130t-51 -100h-749q-124 0 -199 60q-82 64 -82 188zM341 1330l222 322q77 54 165.5 54t141 -54.5t52.5 -125t-45 -115.5q-35 -35 -108 -62l-39 -14h-271l-91 -3q-19 0 -27 -2z" />
<glyph unicode="&#xca;" horiz-adv-x="1112" d="M32 247v951q0 48 110 70t340 22h577q29 -48 43 -104.5t14 -101.5q0 -101 -39.5 -152t-110.5 -51h-403q-37 0 -37 -29v-8q0 -6 2 -8h478q18 -31 31 -78q12 -51 12 -91q0 -119 -44 -186h-217q-152 0 -206 -11.5t-67 -19.5q-13 -9 -13 -23t14 -22q52 17 109 24q75 7 163 7 h281q61 -86 61 -207q0 -68 -17 -130t-51 -100h-749q-124 0 -199 60q-82 64 -82 188zM250 1324l102 313q38 21 99.5 33.5t114.5 12.5q141 0 217 -39l108 -309h-279q-19 57 -26 86q-4 9 -5 17q-21 0 -29 -7.5t-8 -25t16 -70.5h-90q-161 0 -220 -11z" />
<glyph unicode="&#xcb;" horiz-adv-x="1112" d="M32 247v951q0 48 110 70t340 22h577q29 -48 43 -104.5t14 -101.5q0 -101 -39.5 -152t-110.5 -51h-403q-37 0 -37 -29v-8q0 -6 2 -8h478q18 -31 31 -78q12 -51 12 -91q0 -119 -44 -186h-217q-152 0 -206 -11.5t-67 -19.5q-13 -9 -13 -23t14 -22q52 17 109 24q75 7 163 7 h281q61 -86 61 -207q0 -68 -17 -130t-51 -100h-749q-124 0 -199 60q-82 64 -82 188zM226 1508q0 79 54.5 135.5t133.5 56.5q101 0 159 -86q59 86 157 86q78 0 134 -56t56 -135q0 -60 -31 -107t-85 -67h-146q-50 19 -83 66q-30 -45 -80 -66h-56q-11 -1 -41.5 -2t-49.5 -2 q-57 20 -89.5 68.5t-32.5 108.5z" />
<glyph unicode="&#xcc;" horiz-adv-x="648" d="M-21 1404v105q0 82 41 134q49 63 150 63q69 0 121.5 -33t104.5 -105q2 -2 38.5 -52.5t51 -69t32 -42.5t30.5 -41t21 -28q-5 -17 -21 -30q-86 48 -216 48q-76 0 -150 -18zM32 181v1033q46 40 123 67t186 27t189 -48q86 -55 86 -151v-1033q-46 -40 -123 -67t-187 -27 t-187 49q-87 53 -87 150z" />
<glyph unicode="&#xcd;" horiz-adv-x="648" d="M32 181v1033q46 40 123 67t186 27t189 -48q86 -55 86 -151v-1033q-46 -40 -123 -67t-187 -27t-187 49q-87 53 -87 150zM71 1324l226 328q77 54 165.5 54t141 -54.5t52.5 -125t-45 -115.5q-35 -35 -108 -62l-34 -12q-84 16 -152 16q-130 0 -238 -55q-1 3 -2.5 7t-1.5 5.5 t-4 13.5z" />
<glyph unicode="&#xce;" horiz-adv-x="648" d="M21 1337l98 300q38 21 92 33.5t102 12.5q127 0 197 -39l107 -307q-4 -11 -17.5 -28t-26.5 -23q-82 62 -230 67q-11 35 -25 85q-21 0 -29 -7.5t-8 -24t10 -54.5q-138 -10 -234 -66q-25 20 -36 51zM32 181v1033q46 40 123 67t186 27t189 -48q86 -55 86 -151v-1033 q-46 -40 -123 -67t-187 -27t-187 49q-87 53 -87 150z" />
<glyph unicode="&#xcf;" horiz-adv-x="648" d="M-36 1510.5q0 76.5 54.5 133t133.5 56.5q101 0 159 -86q59 86 157 86q78 0 134 -56t56 -131t-42 -125.5t-111 -62.5q-63 24 -143 27q-29 20 -49 49q-23 -33 -53 -52q-59 -6 -126 -28q-73 6 -121.5 59.5t-48.5 130zM32 181v1033q46 40 123 67t186 27t189 -48 q86 -55 86 -151v-1033q-46 -40 -123 -67t-187 -27t-187 49q-87 53 -87 150z" />
<glyph unicode="&#xd0;" horiz-adv-x="1395" d="M22 631q0 78 19 141.5t53 104.5h176q0 21 -8 33t-33 12h-65v214q0 48 74 88.5t186 62t232 21.5q332 0 517 -160q200 -173 200 -520q0 -299 -194 -464t-531 -165h-253q-111 0 -171 59t-60 178v165h-63q-30 30 -54.5 91t-24.5 139zM680 405q10 -18 29 -18q29 0 57 49 q44 82 44 200t-44 211q-20 42 -51 42q-16 0 -30 -20q31 -37 50.5 -99t19.5 -136.5t-30 -151.5q-25 -57 -45 -77z" />
<glyph unicode="&#xd1;" horiz-adv-x="1246" d="M32 77v1120q0 50 77.5 80.5t181.5 30.5q144 0 233 -60q54 -68 223 -353q11 0 20 8t9 24t-25 55l-108 186v53q12 12 51 34q13 -3 48 -3q92 0 144 36q14 9 32 21q127 0 205 -46q91 -55 91 -172v-939q0 -82 -96 -126q-81 -36 -169.5 -36t-124 6t-85.5 23q-78 100 -137 191.5 t-123 197.5q-29 -4 -29 -31q0 -19 29 -65l104 -164v-100q-91 -58 -252 -58q-126 0 -202 26t-97 61zM331 1499q0 91 40 143q47 62 145 62q59 0 90 -8t40 -10.5t16.5 -5t24.5 -8.5t30 -10h200q10 -70 10 -157t-40 -139q-48 -63 -151.5 -63t-194.5 51h-204q-6 54 -6 145z" />
<glyph unicode="&#xd2;" horiz-adv-x="1347" d="M22 645q0 329 198 514q176 163 453 163q301 0 476.5 -186.5t175.5 -490.5q0 -338 -188 -516q-171 -161 -458 -161q-178 0 -326.5 73.5t-239.5 225t-91 378.5zM353 1404v105q0 82 41 134q49 63 150 63q69 0 121.5 -33t104.5 -105q19 -28 35 -47q44 -60 79 -109t73 -97 q-27 9 -66.5 22.5t-118.5 24.5q-48 5 -114 5t-147 -15zM650 438q12 -10 27 -10q24 0 33 37.5t9 137.5v87q0 100 -9 137.5t-33 37.5q-15 0 -27 -10q2 -18 6 -48t4 -128v-65q0 -68 -3 -99t-5 -53z" />
<glyph unicode="&#xd3;" horiz-adv-x="1347" d="M22 645q0 329 198 514q176 163 453 163q301 0 476.5 -186.5t175.5 -490.5q0 -338 -188 -516q-171 -161 -458 -161q-178 0 -326.5 73.5t-239.5 225t-91 378.5zM438 1333l220 319q77 54 165.5 54t141 -54.5t52.5 -125t-45 -115.5q-40 -38 -113 -65q-102 21 -209.5 21 t-211.5 -34zM650 438q12 -10 27 -10q24 0 33 37.5t9 137.5v87q0 100 -9 137.5t-33 37.5q-15 0 -27 -10q2 -18 6 -48t4 -128v-65q0 -68 -3 -99t-5 -53z" />
<glyph unicode="&#xd4;" horiz-adv-x="1347" d="M22 645q0 329 198 514q176 163 453 163q301 0 476.5 -186.5t175.5 -490.5q0 -338 -188 -516q-171 -161 -458 -161q-178 0 -326.5 73.5t-239.5 225t-91 378.5zM341 1297l112 340q38 21 99.5 33.5t114.5 12.5q141 0 217 -39l120 -345q-139 59 -312 68l-20 71 q-21 0 -29 -7.5t-8 -26t6 -36.5q-176 -13 -300 -71zM650 438q12 -10 27 -10q24 0 33 37.5t9 137.5v87q0 100 -9 137.5t-33 37.5q-15 0 -27 -10q2 -18 6 -48t4 -128v-65q0 -68 -3 -99t-5 -53z" />
<glyph unicode="&#xd5;" horiz-adv-x="1347" d="M22 645q0 291 154 469q138 159 368 198q114 -54 241 -54q72 0 120 30q199 -64 309.5 -233t110.5 -410q0 -338 -188 -516q-171 -161 -458 -161q-178 0 -326.5 73.5t-239.5 225t-91 378.5zM374 1497q0 93 40 145q47 62 145 62q59 0 90 -8t40 -10.5t16.5 -5t24.5 -8.5 t30 -10h200q10 -70 10 -157t-40 -139q-48 -63 -149 -63t-241 55q-30 -5 -81.5 -19t-73.5 -23q-11 92 -11 181zM650 438q12 -10 27 -10q24 0 33 37.5t9 137.5v87q0 100 -9 137.5t-33 37.5q-15 0 -27 -10q2 -18 6 -48t4 -128v-65q0 -68 -3 -99t-5 -53z" />
<glyph unicode="&#xd6;" horiz-adv-x="1347" d="M22 645q0 329 198 514q176 163 453 163q301 0 476.5 -186.5t175.5 -490.5q0 -338 -188 -516q-171 -161 -458 -161q-178 0 -326.5 73.5t-239.5 225t-91 378.5zM311 1521.5q0 73.5 51 129.5t140 56q109 0 156 -88q49 89 163 89q81 0 133 -50t52 -143q0 -69 -33 -114 t-89 -64q-89 24 -167 28q-41 28 -53 71q-12 -42 -51 -73q-84 -5 -160 -27q-66 18 -104 65t-38 120.5zM650 438q12 -10 27 -10q24 0 33 37.5t9 137.5v87q0 100 -9 137.5t-33 37.5q-15 0 -27 -10q2 -18 6 -48t4 -128v-65q0 -68 -3 -99t-5 -53z" />
<glyph unicode="&#xd7;" horiz-adv-x="1065" d="M5 452l148 150q4 -4 12.5 -11t12 -10t10.5 -8.5t10.5 -8t12 -8.5t27 -6t26.5 21l-259 229q13 119 128 231t232 137l171 -170l168 171q116 -25 229.5 -140t126.5 -234l-4 -5l-143 -135q-10 8 -25 20.5t-20 16.5q-18 15 -38.5 15t-26.5 -21l257 -229q-13 -120 -126.5 -235 t-229.5 -140l-168 172l-171 -171q-119 27 -233 138t-127 231z" />
<glyph unicode="&#xd8;" horiz-adv-x="1332" d="M20 654q0 331 193 511q173 161 444 161q62 0 121 -9l37 67h22q95 0 199 -52q86 -43 135 -118l-35 -76q176 -185 176 -484q0 -340 -185 -514q-168 -158 -451 -158q-66 0 -135 11l-33 -57q-3 -1 -11 -1h-11q-94 0 -185.5 42.5t-143.5 115.5l32 76q-169 177 -169 485z M563 433q0 -24 24 -24q19 0 29 24l178 443q-14 12 -27 12t-26 -11t-26 -48l-147 -372q-5 -17 -5 -24z" />
<glyph unicode="&#xd9;" horiz-adv-x="1228" d="M32 502v713q118 94 273 94q130 0 206 -68.5t76 -207.5v-583q11 -8 25.5 -8t21 7.5t6.5 28.5v556q0 63 -6 100t-24 74q120 100 290 100q120 0 208 -65t88 -185v-556q0 -254 -155 -391.5t-428.5 -137.5t-425.5 135q-155 135 -155 394zM296 1404v105q0 82 41 134 q49 63 150 63q70 0 119.5 -32.5t106.5 -105.5l159 -214q-138 -7 -235 -64z" />
<glyph unicode="&#xda;" horiz-adv-x="1228" d="M32 502v713q118 94 273 94q130 0 206 -68.5t76 -207.5v-583q11 -8 25.5 -8t21 7.5t6.5 28.5v556q0 63 -6 100t-24 74q120 100 290 100q120 0 208 -65t88 -185v-556q0 -254 -155 -391.5t-428.5 -137.5t-425.5 135q-155 135 -155 394zM370 1352l207 300q77 54 165.5 54 t141 -54.5t52.5 -124.5t-45 -115q-34 -34 -108 -63l-45 -17q-30 -8 -67 -25l-107 -39q-68 69 -194 84z" />
<glyph unicode="&#xdb;" horiz-adv-x="1228" d="M32 502v713q118 94 273 94q130 0 206 -68.5t76 -207.5v-583q11 -8 25.5 -8t21 7.5t6.5 28.5v556q0 63 -6 100t-24 74q120 100 290 100q120 0 208 -65t88 -185v-556q0 -254 -155 -391.5t-428.5 -137.5t-425.5 135q-155 135 -155 394zM282 1355l91 282q39 21 96 33.5 t108 12.5q147 0 227 -39l101 -289h-5q-145 0 -263 -65l-45 148q-21 0 -29 -7.5t-8 -24t7 -41.5t16 -58t13 -46l-12 -10q-83 105 -275 105h-11q-8 0 -11 -1z" />
<glyph unicode="&#xdc;" horiz-adv-x="1228" d="M32 502v713q118 94 273 94q130 0 206 -68.5t76 -207.5v-583q11 -8 25.5 -8t21 7.5t6.5 28.5v556q0 63 -6 100t-24 74q120 100 290 100q120 0 208 -65t88 -185v-556q0 -254 -155 -391.5t-428.5 -137.5t-425.5 135q-155 135 -155 394zM262 1508q0 79 54.5 135.5t133.5 56.5 q101 0 159 -86q59 86 157 86q78 0 134 -56t56 -135q0 -104 -82 -157q-86 -5 -149 -26q-76 17 -114 75q-39 -62 -128 -80q-62 27 -143 32q-78 56 -78 155z" />
<glyph unicode="&#xdd;" horiz-adv-x="1274" d="M2 1168q45 67 134.5 103t184.5 36q125 0 215 -49q56 -151 92 -288l-49 -216q-4 -15 -4 -28q0 -34 36 -34q12 38 56 230q11 49 29.5 136.5t47.5 206.5q92 44 210 44q143 0 228 -69.5t85 -200.5q0 -192 -108 -374q-85 -144 -225 -269v-330q-83 -51 -149 -67.5t-139 -16.5 q-138 0 -217 52t-79 155v176q18 -18 46 -39.5t46 -21.5q28 0 28 31q-221 147 -337.5 361t-130.5 472zM399 1345l213 307q77 54 165.5 54t141 -54.5t52.5 -125t-45 -115.5q-35 -35 -108 -62l-232 -85l-16 28q-72 38 -171 53z" />
<glyph unicode="&#xde;" horiz-adv-x="1196" d="M32 184v920q0 102 80.5 153t204.5 51q69 0 133.5 -12.5t133.5 -54.5v-65q-87 0 -117.5 -9t-30.5 -31v-11q94 6 141 6q286 0 446.5 -137t160.5 -363t-154.5 -344.5t-421.5 -118.5q-98 0 -134 10q-8 -8 -8 -21t21 -21t93 -12v-76q-107 -66 -265 -66q-123 0 -199 49 q-84 52 -84 153zM580 744q1 -5 1 -17v-143q4 -3 23 -3t29 15t10 49v36q0 36 -8.5 51.5t-28 15.5t-26.5 -4z" />
<glyph unicode="&#xdf;" horiz-adv-x="1274" d="M32 255v482q0 279 171 429.5t455 150.5q250 0 408 -120t158 -317q0 -119 -65 -195t-164 -90q-3 -9 -3 -15q0 -25 33 -25q56 0 119 45q59 -24 94.5 -94.5t35.5 -169.5q0 -188 -146 -281q-118 -77 -295 -77q-70 0 -138.5 13.5t-109.5 33.5q-49 73 -49 185q0 56 20.5 103 t50.5 76q58 -35 145 -35q52 0 52 34q0 6 -3 11h-34q-105 0 -166 56q-66 58 -66 157t60 161t142 75q1 1 1 6v5q0 27 -24 27q-73 0 -144 -65q-88 -79 -88 -204q0 -66 25.5 -124t56.5 -81q-81 -87 -81 -200t54 -203q-95 -27 -195 -27q-148 0 -229 75q-81 72 -81 198z" />
<glyph unicode="&#xe0;" d="M12 363.5q0 180.5 117 279.5q107 89 277 89q58 0 112 -8q36 -7 39 -8q3 10 3 17q0 26 -44 35t-115 9q-151 0 -258 -61q-49 83 -49 210q0 72 18 107q72 33 183 58.5t234 25.5q254 0 384 -111t130 -315v-196q0 -72 16 -116t56 -69q1 -5 1 -19v-18q0 -142 -86 -221 q-76 -70 -188 -70q-76 0 -139 36t-90 104q-34 0 -34 -33q0 -28 35 -63q-65 -44 -196 -44q-185 0 -295.5 100.5t-110.5 281zM208 1222v105q0 82 41 134q49 63 150 63q71 0 123 -32.5t103 -105.5q33 -46 98.5 -139t101.5 -138q-117 53 -292 53q-70 0 -120 -8zM482 408 q0 -36 49 -36q34 0 50 16.5t16 57.5h-73q-42 0 -42 -38z" />
<glyph unicode="&#xe1;" d="M12 363.5q0 180.5 117 279.5q107 89 277 89q58 0 112 -8q36 -7 39 -8q3 10 3 17q0 26 -44 35t-115 9q-151 0 -258 -61q-49 83 -49 210q0 72 18 107q72 33 183 58.5t234 25.5q254 0 384 -111t130 -315v-196q0 -72 16 -116t56 -69q1 -5 1 -19v-18q0 -142 -86 -221 q-76 -70 -188 -70q-76 0 -139 36t-90 104q-34 0 -34 -33q0 -28 35 -63q-65 -44 -196 -44q-185 0 -295.5 100.5t-110.5 281zM283 1130l235 340q77 54 165.5 54t141 -54.5t52.5 -126t-53 -119.5q-38 -35 -116 -65l-23 -9q-84 12 -146 12q-128 0 -256 -32zM482 408 q0 -36 49 -36q34 0 50 16.5t16 57.5h-73q-42 0 -42 -38z" />
<glyph unicode="&#xe2;" d="M12 363.5q0 180.5 117 279.5q107 89 277 89q58 0 112 -8q36 -7 39 -8q3 10 3 17q0 26 -44 35t-115 9q-151 0 -258 -61q-49 83 -49 210q0 72 18 107q72 33 183 58.5t234 25.5q254 0 384 -111t130 -315v-196q0 -72 16 -116t56 -69q1 -5 1 -19v-18q0 -142 -86 -221 q-76 -70 -188 -70q-76 0 -139 36t-90 104q-34 0 -34 -33q0 -28 35 -63q-65 -44 -196 -44q-185 0 -295.5 100.5t-110.5 281zM202 1112l109 344q38 21 99.5 33.5t114.5 12.5q141 0 217 -39l127 -374q-129 69 -314 74q-20 69 -25 94q-21 0 -29 -7t-8 -23.5t10 -64.5 q-156 -8 -301 -50zM482 408q0 -36 49 -36q34 0 50 16.5t16 57.5h-73q-42 0 -42 -38z" />
<glyph unicode="&#xe3;" d="M12 363.5q0 180.5 117 279.5q107 89 277 89q58 0 112 -8q36 -7 39 -8q3 10 3 17q0 26 -44 35t-115 9q-151 0 -258 -61q-49 83 -49 210q0 72 18 107q139 63 317 79q118 -46 229 -46q72 0 108 20q277 -87 277 -395v-196q0 -72 16 -116t56 -69q1 -5 1 -19v-18 q0 -142 -86 -221q-76 -70 -188 -70q-76 0 -139 36t-90 104q-34 0 -34 -33q0 -28 35 -63q-65 -44 -196 -44q-185 0 -295.5 100.5t-110.5 281zM247 1325.5q0 83.5 40 135.5q47 62 145 62q59 0 90 -8t40 -10.5t16.5 -5t24.5 -8.5t30 -10h200q10 -70 10 -159t-40 -144 q-48 -66 -145 -66q-70 0 -119.5 13t-68.5 21q-43 13 -45 14q-82 -10 -167 -30q-11 112 -11 195.5zM482 408q0 -36 49 -36q34 0 50 16.5t16 57.5h-73q-42 0 -42 -38z" />
<glyph unicode="&#xe4;" d="M12 363.5q0 180.5 117 279.5q107 89 277 89q58 0 112 -8q36 -7 39 -8q3 10 3 17q0 26 -44 35t-115 9q-151 0 -258 -61q-49 83 -49 210q0 72 18 107q72 33 183 58.5t234 25.5q254 0 384 -111t130 -315v-196q0 -72 16 -116t56 -69q1 -5 1 -19v-18q0 -142 -86 -221 q-76 -70 -188 -70q-76 0 -139 36t-90 104q-34 0 -34 -33q0 -28 35 -63q-65 -44 -196 -44q-185 0 -295.5 100.5t-110.5 281zM173 1332q0 73 54.5 129.5t133.5 56.5q101 0 159 -86q59 86 157 86q78 0 134 -56t56 -129t-36 -122t-108 -69q-30 8 -77 14t-65 6q-35 22 -59 57 q-21 -32 -59 -57q-80 -6 -146 -21q-67 17 -105.5 67.5t-38.5 123.5zM482 408q0 -36 49 -36q34 0 50 16.5t16 57.5h-73q-42 0 -42 -38z" />
<glyph unicode="&#xe5;" d="M12 363.5q0 180.5 117 279.5q107 89 277 89q58 0 112 -8q36 -7 39 -8q3 10 3 17q0 26 -44 35t-115 9q-151 0 -258 -61q-49 83 -49 210q0 72 18 107q77 34 181 58q27 -40 64 -66t67 -26q25 0 28 31q-75 32 -115.5 94t-40.5 143q0 107 75 182t182 75t182 -75t75 -179.5 t-61 -179.5q294 -84 294 -399v-196q0 -72 16 -116t56 -69q1 -5 1 -19v-18q0 -142 -86 -221q-76 -70 -188 -70q-76 0 -139 36t-90 104q-34 0 -34 -33q0 -28 35 -63q-65 -44 -196 -44q-185 0 -295.5 100.5t-110.5 281zM482 408q0 -36 49 -36q34 0 50 16.5t16 57.5h-73 q-42 0 -42 -38z" />
<glyph unicode="&#xe6;" horiz-adv-x="1780" d="M12 364q0 180 117 279q107 89 277 89q58 0 112 -8q36 -7 39 -8q3 10 3 17q0 26 -44 35t-115 9q-151 0 -258 -61q-49 83 -49 210q0 72 18 107q72 33 183 58.5t234 25.5q205 0 342 -74q-49 -39 -49 -70q0 -20 22 -25q63 84 171.5 129t218.5 45q237 0 381.5 -131.5 t144.5 -323.5q0 -171 -119 -258q-110 -82 -300 -82q-142 0 -240 59q-8 -6 -8 -22q0 -30 79 -55q79 -27 179.5 -27t183 25.5t132.5 60.5q24 -21 38.5 -77.5t14.5 -103t-9 -82.5q-67 -60 -173.5 -98t-241.5 -38t-241 34.5t-156 83.5q32 35 32 63q0 11 -8 20.5t-24 9.5 q-48 -92 -166 -145t-275 -53q-203 0 -324.5 101t-121.5 281zM483 408q0 -36 49 -36q34 0 50 16.5t16 57.5h-73q-42 0 -42 -38zM1192 663q28 -17 64 -17q50 0 50 38q0 36 -53 36t-61 -57z" />
<glyph unicode="&#xe7;" horiz-adv-x="1074" d="M20 559q0 271 175 428q156 140 390 140q208 0 345 -102.5t137 -278.5q0 -122 -75.5 -198.5t-198.5 -76.5q-100 0 -166.5 53.5t-78.5 139.5q-44 0 -44 -32q0 -73 72 -134q83 -72 205 -72t206 53q12 -21 15 -26q35 -58 35 -161q0 -89 -53.5 -159t-125.5 -105 q-29 35 -61.5 55t-61 20t-32.5 -30q155 -60 155 -225q0 -119 -93 -184q-80 -57 -205 -57t-201 53.5t-76 148.5t75 139q32 -15 73 -15q57 0 57 33q0 16 -12 25q-215 35 -335.5 185t-120.5 383z" />
<glyph unicode="&#xe8;" horiz-adv-x="1132" d="M20 547.5q0 269.5 169 427.5q156 147 395 147t383.5 -131.5t144.5 -323.5q0 -171 -119 -258q-110 -82 -300 -82q-142 0 -240 59q-8 -6 -8 -22q0 -30 79 -55q79 -27 179.5 -27t183 25.5t132.5 60.5q24 -21 38.5 -77.5t14.5 -103t-9 -82.5q-78 -66 -160 -94 q-116 -42 -282 -42q-277 0 -437 154q-164 155 -164 424.5zM257 1222v105q0 82 41 134q49 63 150 63q71 0 123 -32.5t99 -101t123 -172t96 -125.5q-121 79 -309 79q-58 0 -133 -13zM544 663q28 -17 64 -17q50 0 50 38q0 36 -53 36t-61 -57z" />
<glyph unicode="&#xe9;" horiz-adv-x="1132" d="M20 547.5q0 269.5 169 427.5q156 147 395 147t383.5 -131.5t144.5 -323.5q0 -171 -119 -258q-110 -82 -300 -82q-142 0 -240 59q-8 -6 -8 -22q0 -30 79 -55q79 -27 179.5 -27t183 25.5t132.5 60.5q24 -21 38.5 -77.5t14.5 -103t-9 -82.5q-78 -66 -160 -94 q-116 -42 -282 -42q-277 0 -437 154q-164 155 -164 424.5zM328 1120l242 350q77 54 165.5 54t141 -54.5t52.5 -125t-45 -115.5q-35 -35 -108 -62l-31 -12q-77 18 -160 18q-146 0 -257 -53zM544 663q28 -17 64 -17q50 0 50 38q0 36 -53 36t-61 -57z" />
<glyph unicode="&#xea;" horiz-adv-x="1132" d="M20 547.5q0 269.5 169 427.5q156 147 395 147t383.5 -131.5t144.5 -323.5q0 -171 -119 -258q-110 -82 -300 -82q-142 0 -240 59q-8 -6 -8 -22q0 -30 79 -55q79 -27 179.5 -27t183 25.5t132.5 60.5q24 -21 38.5 -77.5t14.5 -103t-9 -82.5q-78 -66 -160 -94 q-116 -42 -282 -42q-277 0 -437 154q-164 155 -164 424.5zM225 1063l129 393q38 21 99.5 33.5t114.5 12.5q141 0 217 -39l134 -381q-56 40 -147 66q-88 23 -174 25q-13 40 -25 84q-21 0 -29 -7t-8 -23.5t10 -54.5q-76 -2 -166.5 -31.5t-154.5 -77.5zM544 663q28 -17 64 -17 q50 0 50 38q0 36 -53 36t-61 -57z" />
<glyph unicode="&#xeb;" horiz-adv-x="1132" d="M20 547.5q0 269.5 169 427.5q156 147 395 147t383.5 -131.5t144.5 -323.5q0 -171 -119 -258q-110 -82 -300 -82q-142 0 -240 59q-8 -6 -8 -22q0 -30 79 -55q79 -27 179.5 -27t183 25.5t132.5 60.5q24 -21 38.5 -77.5t14.5 -103t-9 -82.5q-78 -66 -160 -94 q-116 -42 -282 -42q-277 0 -437 154q-164 155 -164 424.5zM227 1331q0 74 54.5 130.5t133.5 56.5q101 0 159 -86q59 86 157 86q78 0 134 -56t56 -128.5t-38.5 -124t-101.5 -64.5q-72 22 -158 27q-29 18 -47 47q-19 -29 -47 -48q-80 -6 -151 -30q-67 12 -109 64t-42 126z M544 663q28 -17 64 -17q50 0 50 38q0 36 -53 36t-61 -57z" />
<glyph unicode="&#xec;" horiz-adv-x="612" d="M-3 1221v105q0 82 41 134q49 63 150 63q71 0 123 -32.5t103 -105.5l160 -228q-6 -28 -31 -60.5t-51 -46.5q54 -43 54 -125v-421q0 -149 72 -194q1 -5 1 -19v-18q0 -147 -80 -221q-74 -70 -197.5 -70t-203.5 70q-101 89 -101 260v738q103 57 240 57h17q11 0 16 -1z" />
<glyph unicode="&#xed;" horiz-adv-x="612" d="M37 312v738q13 10 40 19q-29 31 -40 73l226 328q77 54 165.5 54t141 -54.5t52.5 -125t-45 -115.5q-35 -35 -108 -62l-165 -60q124 -4 183 -52t59 -130v-421q0 -149 72 -194q1 -5 1 -19v-18q0 -147 -80 -221q-74 -70 -197.5 -70t-203.5 70q-101 89 -101 260z" />
<glyph unicode="&#xee;" horiz-adv-x="612" d="M-52 1114l111 341q39 21 96 33.5t111 12.5t108.5 -11.5t87.5 -32.5l121 -355q-31 -18 -49 -23q-72 66 -225 72q-1 5 -15.5 51.5t-15.5 53.5q-21 0 -29 -7.5t-8 -24.5t16 -72q-163 -7 -264 -70q-35 19 -45 32zM37 312v738q103 57 240 57t206 -50q63 -47 63 -132v-421 q0 -149 72 -194q1 -5 1 -19v-18q0 -147 -80 -221q-74 -70 -197.5 -70t-203.5 70q-101 89 -101 260z" />
<glyph unicode="&#xef;" horiz-adv-x="612" d="M-69 1325.5q0 78.5 54.5 135t133.5 56.5q101 0 159 -86q59 86 157 86q78 0 134 -56t56 -134.5t-52 -133t-136 -54.5q-103 0 -157 79q-53 -81 -159 -81q-84 0 -137 55t-53 133.5zM37 312v738q103 57 240 57t206 -50q63 -47 63 -132v-421q0 -149 72 -194q1 -5 1 -19v-18 q0 -147 -80 -221q-74 -70 -197.5 -70t-203.5 70q-101 89 -101 260z" />
<glyph unicode="&#xf0;" horiz-adv-x="1153" d="M20 480q0 194 106.5 318t288.5 156q0 27 -19 30q-7 2 -24 2q-49 0 -128.5 -32.5t-138.5 -91.5q-59 66 -70 131l106 96l-73 81q30 79 110.5 168.5t145.5 102.5q81 -26 159.5 -61.5t163.5 -100.5q22 5 22 22t-53 58l86 62q103 -43 180 -133.5t99 -210.5l-80 -62 q89 -80 145 -175q87 -154 87 -346q0 -249 -158 -389q-151 -136 -396 -136t-398 135q-161 140 -161 376zM553 619q9 -90 9 -149v-74q7 -7 23 -7t23 11t7 38v42q0 88 -8 118.5t-30 30.5q-14 0 -24 -10z" />
<glyph unicode="&#xf1;" horiz-adv-x="1155" d="M-13 896.5q0 121.5 59 210.5h184q71 0 121 -53q-44 -41 -44 -68q0 -31 35 -31q62 111 199 153q94 -30 173.5 -30t120.5 28q116 -34 181 -121q77 -103 77 -275v-49q-1 -19 -1 -57q-2 -38 -2 -128q0 -53 16 -97t56 -69q1 -5 1 -19v-18q0 -138 -79.5 -214.5t-205 -76.5 t-203.5 71q-91 81 -91 246q0 70 6.5 123.5t9 76.5t5.5 43t3 59t-10.5 56t-29 17t-32.5 -8l13 -163q-18 -101 -18 -214t51 -206q-98 -101 -275 -101q-101 0 -175 53q-86 60 -86 159v498q-59 83 -59 204.5zM305 1316q0 93 40 145q47 62 145 62q59 0 90 -8t40 -10.5t16.5 -5 t24.5 -8.5t30 -10h200q10 -70 10 -157t-40 -139q-48 -63 -145 -63q-70 0 -119.5 13t-68.5 21q-43 13 -45 14h-171q-7 56 -7 146z" />
<glyph unicode="&#xf2;" horiz-adv-x="1160" d="M20 542.5q0 270.5 154.5 427t405.5 156.5t406 -163q154 -163 154 -424.5t-148.5 -415.5t-403.5 -154t-404 145q-164 158 -164 428.5zM273 1221v105q0 82 41 134q49 63 150 63q70 0 119.5 -32.5t106.5 -105.5l175 -233q-5 -21 -15 -39q-125 58 -272 58q-63 0 -126 -11z M549 716q9 -99 9 -159v-175q7 -7 23 -7t23 11t7 38v143q0 96 -8 127.5t-30 31.5q-14 0 -24 -10z" />
<glyph unicode="&#xf3;" horiz-adv-x="1160" d="M20 542.5q0 270.5 154.5 427t405.5 156.5t406 -163q154 -163 154 -424.5t-148.5 -415.5t-403.5 -154t-404 145q-164 158 -164 428.5zM309 1142l226 328q77 54 165.5 54t141 -54.5t52.5 -125t-45 -115.5q-35 -35 -108 -62l-28 -10q-67 14 -129 14q-147 0 -268 -53 q-5 20 -7 24zM549 716q9 -99 9 -159v-175q7 -7 23 -7t23 11t7 38v143q0 96 -8 127.5t-30 31.5q-14 0 -24 -10z" />
<glyph unicode="&#xf4;" horiz-adv-x="1160" d="M20 542.5q0 270.5 154.5 427t405.5 156.5t406 -163q154 -163 154 -424.5t-148.5 -415.5t-403.5 -154t-404 145q-164 158 -164 428.5zM219 1066l127 389q38 21 99.5 33.5t114.5 12.5q141 0 217 -39l133 -381q-136 86 -320 90q-20 67 -25 85q-21 0 -29 -7.5t-8 -28 t11 -51.5q-187 -11 -320 -103zM549 716q9 -99 9 -159v-175q7 -7 23 -7t23 11t7 38v143q0 96 -8 127.5t-30 31.5q-14 0 -24 -10z" />
<glyph unicode="&#xf5;" horiz-adv-x="1160" d="M20 551q0 236 127.5 388t343.5 181q109 -43 209 -43q54 0 90 14q163 -60 256 -205q94 -149 94 -344q0 -265 -148.5 -419t-403.5 -154t-404 145q-164 158 -164 437zM289 1316q0 93 40 145q47 62 145 62q59 0 90 -8t40 -10.5t16.5 -5t24.5 -8.5t30 -10h200q10 -70 10 -157 t-40 -139q-48 -63 -142.5 -63t-177.5 30q-26 10 -39 14q-71 -8 -183 -51q-14 112 -14 201zM549 716q9 -99 9 -159v-175q7 -7 23 -7t23 11t7 38v143q0 96 -8 127.5t-30 31.5q-14 0 -24 -10z" />
<glyph unicode="&#xf6;" horiz-adv-x="1160" d="M20 542.5q0 270.5 154.5 427t405.5 156.5t406 -163q154 -163 154 -424.5t-148.5 -415.5t-403.5 -154t-404 145q-164 158 -164 428.5zM228 1329.5q0 74.5 54.5 131t133.5 56.5q101 0 159 -86q59 86 157 86q78 0 134 -56t56 -130.5t-40 -124.5t-108 -63q-66 21 -148 26 q-29 20 -49 49q-19 -30 -49 -49q-84 -6 -152 -28q-66 13 -107 63.5t-41 125zM549 716q9 -99 9 -159v-175q7 -7 23 -7t23 11t7 38v143q0 96 -8 127.5t-30 31.5q-14 0 -24 -10z" />
<glyph unicode="&#xf7;" horiz-adv-x="1071" d="M10 600q0 72 21 130.5t62 119.5h193q33 -96 110 -146q66 -43 159.5 -43t160 50t93.5 139h168q44 -64 64 -121t20 -128.5t-20.5 -128t-63.5 -116.5h-884q-83 114 -83 244zM317 270q0 20 3 41h453q4 -17 4 -41q0 -96 -66 -162t-161.5 -66t-164 66.5t-68.5 161.5zM317 933 q0 96 67.5 163.5t162.5 67.5t162.5 -67.5t67.5 -164t-66 -162.5t-161.5 -66t-164 66.5t-68.5 162.5z" />
<glyph unicode="&#xf8;" horiz-adv-x="1156" d="M18 544.5q0 268.5 154.5 425t406.5 156.5h22q8 0 22 -2l20 47q21 3 44 3q97 0 186.5 -37t139.5 -102l-26 -76q151 -164 151 -419t-149.5 -406.5t-409.5 -151.5h-12q-9 0 -13 1l-28 -60q-27 -3 -53 -3q-90 0 -174 35t-135 98l22 68q-168 155 -168 423.5zM511 408 q0 -24 23 -24q20 0 30 24l91 261q-13 12 -27 12t-25.5 -10.5t-23.5 -49.5l-63 -189q-5 -17 -5 -24z" />
<glyph unicode="&#xf9;" horiz-adv-x="1149" d="M-13 874q0 55 14 114t45 105h220q124 0 194.5 -58.5t70.5 -177.5v-324q0 -97 37 -97q12 0 26 10q-10 33 -10 103v494q106 64 255 64q84 0 147.5 -22.5t97.5 -59.5v-521q0 -149 72 -194q1 -5 1 -19v-18q0 -146 -77 -221q-70 -70 -193 -70q-77 0 -139.5 35t-93.5 102 q-34 0 -34 -33q0 -23 23 -46q-32 -26 -77 -42t-132.5 -16t-170.5 36q-103 44 -158 135q-67 108 -67 274v251q-51 89 -51 196zM208 1210v105q0 82 41 134q49 63 150 63q70 0 119.5 -32.5t106.5 -105.5l169 -226q-131 -11 -222 -61z" />
<glyph unicode="&#xfa;" horiz-adv-x="1149" d="M-13 874q0 55 14 114t45 105h220q124 0 194.5 -58.5t70.5 -177.5v-324q0 -97 37 -97q12 0 26 10q-10 33 -10 103v494q106 64 255 64q84 0 147.5 -22.5t97.5 -59.5v-521q0 -149 72 -194q1 -5 1 -19v-18q0 -146 -77 -221q-70 -70 -193 -70q-77 0 -139.5 35t-93.5 102 q-34 0 -34 -33q0 -23 23 -46q-32 -26 -77 -42t-132.5 -16t-170.5 36q-103 44 -158 135q-67 108 -67 274v251q-51 89 -51 196zM266 1138l229 332q77 54 165.5 54t141 -54.5t52.5 -125t-45 -115.5q-35 -35 -108 -62l-228 -83q-73 54 -207 54z" />
<glyph unicode="&#xfb;" horiz-adv-x="1149" d="M-13 874q0 55 14 114t45 105h302q79 0 131 -39t52 -109v-412q0 -95 37 -95q16 0 26 8q-10 33 -10 103v494q106 64 255 64q84 0 147.5 -22.5t97.5 -59.5v-521q0 -149 72 -194q1 -5 1 -19v-18q0 -146 -77 -221q-70 -70 -193 -70q-77 0 -139.5 35t-93.5 102q-34 0 -34 -33 q0 -23 23 -46q-32 -26 -77 -42t-132.5 -16t-170.5 36q-103 44 -158 135q-67 108 -67 274v251q-51 89 -51 196zM216 1135l104 320q38 21 99.5 33.5t114.5 12.5q141 0 217 -39l106 -310q-165 0 -273 -54q-15 50 -28 97.5t-15 53t-2 7.5q-21 0 -29 -7.5t-8 -27.5q0 -5 39 -161 q-55 75 -172 75h-153z" />
<glyph unicode="&#xfc;" horiz-adv-x="1149" d="M-13 874q0 55 14 114t45 105h220q124 0 194.5 -58.5t70.5 -177.5v-324q0 -97 37 -97q12 0 26 10q-10 33 -10 103v494q106 64 255 64q84 0 147.5 -22.5t97.5 -59.5v-521q0 -149 72 -194q1 -5 1 -19v-18q0 -146 -77 -221q-70 -70 -193 -70q-77 0 -139.5 35t-93.5 102 q-34 0 -34 -33q0 -23 23 -46q-32 -26 -77 -42t-132.5 -16t-170.5 36q-103 44 -158 135q-67 108 -67 274v251q-51 89 -51 196zM194 1325.5q0 78.5 54.5 135t133.5 56.5q101 0 159 -86q59 86 157 86q78 0 134 -56t56 -134.5t-52 -133t-136 -54.5q-103 0 -157 79 q-53 -81 -159 -81q-84 0 -137 55t-53 133.5z" />
<glyph unicode="&#xfd;" horiz-adv-x="1094" d="M-28 884q0 120 60 209h257q129 0 193 -74q47 -55 60 -161q-22 -174 -22 -353v-23q0 -16 1 -23q10 -5 22 -5q29 0 29 44q0 147 16.5 305.5t35.5 244.5q81 59 216 59t208.5 -52.5t73.5 -126.5q0 -31 -37 -256q-41 -229 -105 -482q-13 -51 -46.5 -143t-71.5 -153 q-119 -189 -294 -234q-82 -21 -165 -21q-161 0 -249 80q-81 72 -81 178.5t63 200.5q15 4 55 4t100 -10q166 -31 169 -31q7 -1 15.5 -2.5t22.5 -1.5t24 8t10 32l-236 45q-87 36 -151 151q-79 142 -107 385q-66 86 -66 206zM264 1137l230 333q77 54 165.5 54t141 -54.5 t52.5 -125t-45 -115.5q-35 -35 -108 -62l-219 -80q-60 50 -205 50h-12z" />
<glyph unicode="&#xfe;" horiz-adv-x="1127" d="M37 -128v1484q45 32 116 50.5t149.5 18.5t151.5 -20.5t110 -48.5v-217q-123 -5 -207 -46q-25 -12 -35.5 -21.5t-10.5 -25t13 -23.5q125 71 275 71q105 0 198 -39.5t163 -112.5q147 -155 147 -391q0 -260 -136.5 -405t-379.5 -145q-144 0 -225 34q-7 -4 -7 -17 q0 -30 46.5 -43t160.5 -19v-266q-103 -46 -226 -46q-145 0 -219 53q-84 57 -84 175zM549 699q9 -99 9 -159v-134q7 -7 23 -7t23 11t7 38v102q0 96 -8 127.5t-30 31.5q-14 0 -24 -10z" />
<glyph unicode="&#xff;" horiz-adv-x="1094" d="M-28 884q0 120 60 209h257q129 0 193 -74q47 -55 60 -161q-22 -174 -22 -353v-23q0 -16 1 -23q10 -5 22 -5q29 0 29 44q0 147 16.5 305.5t35.5 244.5q81 59 216 59t208.5 -52.5t73.5 -126.5q0 -31 -37 -256q-41 -229 -105 -482q-13 -51 -46.5 -143t-71.5 -153 q-119 -189 -294 -234q-82 -21 -165 -21q-161 0 -249 80q-81 72 -81 178.5t63 200.5q15 4 55 4t100 -10q166 -31 169 -31q7 -1 15.5 -2.5t22.5 -1.5t24 8t10 32l-236 45q-87 36 -151 151q-79 142 -107 385q-66 86 -66 206zM196 1325.5q0 78.5 54.5 135t133.5 56.5 q101 0 159 -86q59 86 157 86q78 0 134 -56t56 -134.5t-52 -133t-136 -54.5q-103 0 -157 79q-53 -81 -159 -81q-84 0 -137 55t-53 133.5z" />
<glyph unicode="&#x152;" horiz-adv-x="2079" d="M22 642q0 228 89.5 380t235.5 226t318 74q307 0 476 -188q27 9 27 28.5t-32 54.5q-33 34 -69 62q105 11 262 11h692q29 -48 43 -104.5t14 -101.5q0 -127 -62 -203h-476q-37 0 -37 -29v-8q0 -6 2 -8h448q18 -31 31 -78q12 -51 12 -91q0 -119 -44 -186h-187 q-152 0 -205.5 -11.5t-67.5 -19.5q-13 -9 -13 -23t14 -22q52 17 109 24q75 7 163 7h124q103 0 155.5 -62.5t52.5 -179.5t-68 -195h-725q-207 0 -251 162q-10 0 -23 -7.5t-13 -31.5t25 -66q-55 -33 -148.5 -60.5t-220.5 -27.5q-168 0 -308 67q-158 75 -244 217 q-99 162 -99 390zM650 438q12 -10 27 -10q24 0 33 37.5t9 137.5v87q0 100 -9 137.5t-33 37.5q-15 0 -27 -10q2 -18 6 -48t4 -128v-65q0 -68 -3 -99t-5 -53z" />
<glyph unicode="&#x153;" horiz-adv-x="1755" d="M11 541.5q0 269.5 152.5 427t397.5 157.5q189 0 309 -73q-35 -38 -43.5 -51t-8.5 -31t22 -23q64 87 163.5 133.5t204.5 46.5q244 0 389 -148q138 -143 138 -369q0 -49 -17 -106t-41 -70q-56 -30 -165.5 -48.5t-236 -18.5t-199.5 17q-3 -4 -3 -16q0 -23 48 -34.5 t171 -11.5q202 0 361 57q14 -17 26 -71.5t12 -97.5t-7 -72q-48 -60 -172.5 -108.5t-271.5 -48.5q-188 0 -305 68q44 44 44 75q0 21 -27 32q-49 -89 -151 -138.5t-230 -49.5q-245 0 -396 145q-164 158 -164 427.5zM541 716q9 -99 9 -159v-175q7 -7 23 -7t23 11t7 38v143 q0 96 -8 127.5t-30 31.5q-14 0 -24 -10zM1144 663q34 -3 77.5 -3t63.5 5q0 25 -14.5 44.5t-50 19.5t-56 -20.5t-20.5 -45.5z" />
<glyph unicode="&#x178;" horiz-adv-x="1274" d="M2 1168q45 67 134.5 103t184.5 36q125 0 215 -49q56 -151 92 -288l-49 -216q-4 -15 -4 -28q0 -34 36 -34q12 38 56 230q11 49 29.5 136.5t47.5 206.5q92 44 210 44q143 0 228 -69.5t85 -200.5q0 -192 -108 -374q-85 -144 -225 -269v-330q-83 -51 -149 -67.5t-139 -16.5 q-138 0 -217 52t-79 155v176q18 -18 46 -39.5t46 -21.5q28 0 28 31q-221 147 -337.5 361t-130.5 472zM283 1508q0 79 54.5 135.5t133.5 56.5q101 0 159 -86q59 86 157 86q78 0 134 -56t56 -135q0 -104 -82 -157q-75 -11 -132 -28q-88 11 -131 77q-42 -67 -128 -79 q-64 23 -140 28q-81 52 -81 158z" />
<glyph unicode="&#x2c6;" horiz-adv-x="728" d="M20 1274l118 363q38 21 99.5 33.5t114.5 12.5q141 0 217 -39l139 -397q-27 -27 -78 -44t-104 -17t-94 10q-3 8 -9.5 29t-35 109.5t-30.5 103.5q-21 0 -29 -7.5t-8 -25t16 -70.5l24 -80l-24 -52q-45 -17 -109.5 -17t-122 23.5t-84.5 64.5z" />
<glyph unicode="&#x2dc;" horiz-adv-x="636" d="M20 1457v40q0 93 40 145q47 62 145 62q59 0 90 -8t40 -10.5t16.5 -5t24.5 -8.5t30 -10h200q10 -70 10 -157t-40 -139q-48 -63 -145 -63q-72 0 -122.5 15.5t-76 26t-42.5 16.5h-165q-5 39 -5 96z" />
<glyph unicode="&#x2000;" horiz-adv-x="854" />
<glyph unicode="&#x2001;" horiz-adv-x="1708" />
<glyph unicode="&#x2002;" horiz-adv-x="854" />
<glyph unicode="&#x2003;" horiz-adv-x="1708" />
<glyph unicode="&#x2004;" horiz-adv-x="569" />
<glyph unicode="&#x2005;" horiz-adv-x="427" />
<glyph unicode="&#x2006;" horiz-adv-x="284" />
<glyph unicode="&#x2007;" horiz-adv-x="284" />
<glyph unicode="&#x2008;" horiz-adv-x="213" />
<glyph unicode="&#x2009;" horiz-adv-x="341" />
<glyph unicode="&#x200a;" horiz-adv-x="94" />
<glyph unicode="&#x2010;" horiz-adv-x="721" d="M10 610q0 72 21 130.5t62 119.5h534q44 -64 64 -121t20 -128.5t-20.5 -128t-63.5 -116.5h-534q-83 114 -83 244z" />
<glyph unicode="&#x2011;" horiz-adv-x="721" d="M10 610q0 72 21 130.5t62 119.5h534q44 -64 64 -121t20 -128.5t-20.5 -128t-63.5 -116.5h-534q-83 114 -83 244z" />
<glyph unicode="&#x2012;" horiz-adv-x="721" d="M10 610q0 72 21 130.5t62 119.5h534q44 -64 64 -121t20 -128.5t-20.5 -128t-63.5 -116.5h-534q-83 114 -83 244z" />
<glyph unicode="&#x2013;" horiz-adv-x="1074" d="M10 610q0 72 21 130.5t62 119.5h887q44 -64 64 -121t20 -128.5t-20.5 -128t-63.5 -116.5h-887q-83 114 -83 244z" />
<glyph unicode="&#x2014;" horiz-adv-x="1337" d="M10 610q0 72 21 130.5t62 119.5h1150q44 -64 64 -121t20 -128.5t-20.5 -128t-63.5 -116.5h-1150q-83 114 -83 244z" />
<glyph unicode="&#x2018;" horiz-adv-x="552" d="M10 1045q0 165 90 262q80 86 200 86q83 0 132 -33.5t49 -96.5q0 -47 -24 -75q-55 34 -112.5 34t-88 -11t-30.5 -32q0 -10 3.5 -13.5t7.5 -9.5q35 21 97 21q81 0 139.5 -56t58.5 -145q0 -111 -70 -173.5t-178 -62.5q-127 0 -200.5 86t-73.5 219z" />
<glyph unicode="&#x2019;" horiz-adv-x="552" d="M20 1146q0 111 69.5 173.5t178.5 62.5q127 0 200.5 -87t73.5 -220q0 -165 -88.5 -255.5t-211.5 -90.5q-77 0 -124 34.5t-47 95.5q0 47 24 75q55 -34 112.5 -34t88 11t30.5 32q0 10 -3.5 13.5t-7.5 9.5q-35 -21 -97 -21q-83 0 -138 55q-60 57 -60 146z" />
<glyph unicode="&#x201a;" horiz-adv-x="552" d="M20 330q0 111 69.5 173.5t178.5 62.5q127 0 200.5 -87t73.5 -220q0 -165 -88.5 -255.5t-211.5 -90.5q-77 0 -124 34.5t-47 95.5q0 47 24 75q55 -34 112.5 -34t88 11t30.5 32q0 10 -3.5 13.5t-7.5 9.5q-35 -21 -97 -21q-83 0 -138 55q-60 57 -60 146z" />
<glyph unicode="&#x201c;" horiz-adv-x="973" d="M10 1045q0 165 90 262q80 86 200 86q83 0 132 -33.5t49 -96.5q0 -47 -24 -75q-55 34 -112.5 34t-88 -11t-30.5 -32q0 -10 3.5 -13.5t7.5 -9.5q35 21 97 21q81 0 139.5 -56t58.5 -145q0 -111 -70 -173.5t-178 -62.5q-127 0 -200.5 86t-73.5 219zM496 1169q29 90 100 141 q64 48 142.5 48t123.5 -30.5t45 -87.5q0 -38 -20 -66q-42 30 -113 30q-44 0 -71.5 -10.5t-27.5 -30.5q0 -8 4 -12l6 -9q33 17 88 17q75 0 126 -48q54 -54 54 -133q0 -102 -63.5 -158t-167 -56t-173.5 73q34 58 34 149q0 53 -25 102.5t-62 80.5z" />
<glyph unicode="&#x201d;" horiz-adv-x="972" d="M20 1140q0 101 63.5 157.5t167 56.5t173.5 -73q-34 -58 -34 -136q0 -119 88 -193q-29 -93 -97 -142.5t-146.5 -49.5t-123.5 30.5t-45 87.5q0 38 20 66q42 -30 113 -30q44 0 71.5 10.5t27.5 30.5q0 8 -3 13q-5 5 -7 8q-33 -17 -88 -17q-76 0 -125 49q-55 52 -55 132z M440 1146q0 111 69.5 173.5t178.5 62.5q127 0 200.5 -87t73.5 -220q0 -165 -88.5 -255.5t-211.5 -90.5q-77 0 -124 34.5t-47 95.5q0 47 24 75q55 -34 112.5 -34t88 11t30.5 32q0 10 -3.5 13.5t-7.5 9.5q-35 -21 -97 -21q-83 0 -138 55q-60 57 -60 146z" />
<glyph unicode="&#x201e;" horiz-adv-x="972" d="M20 322q0 101 63.5 157.5t167 56.5t173.5 -73q-34 -58 -34 -136q0 -119 88 -193q-29 -93 -97 -142.5t-146.5 -49.5t-123.5 30.5t-45 87.5q0 38 20 66q42 -30 113 -30q44 0 71.5 10.5t27.5 30.5q0 9 -4 13.5t-6 7.5q-33 -17 -88 -17q-76 0 -125 49q-55 52 -55 132z M440 328q0 111 69.5 173.5t178.5 62.5q127 0 200.5 -87t73.5 -220q0 -165 -88.5 -255.5t-211.5 -90.5q-77 0 -124 34.5t-47 95.5q0 47 24 75q55 -34 112.5 -34t88 11t30.5 32q0 10 -3.5 13.5t-7.5 9.5q-35 -21 -97 -21q-83 0 -138 55q-60 57 -60 146z" />
<glyph unicode="&#x2022;" horiz-adv-x="832" d="M0 535q0 96 48 170q28 45 115 125.5t126 134.5q33 43 51.5 58t45.5 15t46.5 -15.5t55 -63.5t122.5 -129t116 -125q46 -74 46 -170q0 -135 -100.5 -213.5t-284 -78.5t-285.5 79t-102 213z" />
<glyph unicode="&#x2026;" horiz-adv-x="1607" d="M20 277.5q0 118.5 85 205.5q85 85 202 85q80 0 146 -39t105 -106q39 67 104.5 106t143 39t146 -39t106.5 -104q39 65 104.5 104t143.5 39q119 0 206 -85q85 -85 85 -203.5t-85.5 -204t-205.5 -85.5q-79 0 -144 38.5t-104 105.5q-39 -67 -105.5 -105.5t-145.5 -38.5 t-144 38.5t-104 105.5q-38 -66 -106 -105t-146 -39q-118 0 -202.5 84.5t-84.5 203z" />
<glyph unicode="&#x202f;" horiz-adv-x="341" />
<glyph unicode="&#x2039;" horiz-adv-x="777" d="M15 650q0 118 36 215l454 351q114 -34 176 -130q48 -78 48 -173q0 -68 -13 -125l-255 -177v-7q0 -9 6.5 -16t18.5 -7q28 0 100 45l39 -21q66 -37 101.5 -100.5t35.5 -131.5q0 -108 -90 -193q-71 -68 -156 -97l-450 342q-23 38 -37 100t-14 125z" />
<glyph unicode="&#x203a;" horiz-adv-x="753" d="M15 373q0 118 168 211l140 78q0 36 -31 36q-16 0 -41 -16l-40 -22l-180 128q-13 58 -13 125q0 95 49 173q60 96 175 130l460 -351q36 -97 36 -215q0 -63 -14 -125t-37 -100l-426 -342q-85 29 -156 97q-90 85 -90 193z" />
<glyph unicode="&#x205f;" horiz-adv-x="427" />
<glyph unicode="&#x20ac;" horiz-adv-x="1137" d="M-41 590q0 156 45 260h38q63 232 242 351q160 107 379 107q189 0 324 -66q117 -59 170 -151q-11 -109 -63 -225h-428q-62 0 -73 -45h476q17 -50 17 -119.5t-18.5 -135.5t-44.5 -97h-450q2 -28 23.5 -38t66.5 -10h402q32 -47 54.5 -135.5t22.5 -148.5q-56 -69 -171.5 -108 t-283.5 -39q-241 0 -403 107q-184 121 -223 354l-83 1q-19 60 -19 138z" />
<glyph unicode="&#x2122;" horiz-adv-x="1384" d="M-20 1141q0 104 53 157h694q97 0 183 -24l14 -61q-28 -121 -28 -128q0 -33 42 -33l54 226q64 31 133 31t117 -23t56 -76t32 -232q23 -192 24 -206q5 -33 7.5 -59t4.5 -46.5t2 -29.5q-18 -34 -71 -57.5t-126.5 -23.5t-127 27.5t-55.5 67.5l-3 59q76 14 115 69 q16 23 16 38.5t-10.5 24t-24.5 8.5q-28 -54 -59 -75.5t-72 -21.5t-72 21.5t-59 75.5q-35 0 -35 -32q0 -15 12 -34q21 -35 58.5 -54t72.5 -21v-97q-17 -20 -67 -38t-141.5 -18t-144.5 37q-42 28 -42 64q0 15 23 286h30q29 0 40.5 7t11.5 24l-2 13q-129 0 -186 3h-41 q-2 -8 -2 -17.5t8.5 -19.5t34.5 -10h53l-27 -353q-53 -34 -137.5 -34t-132 27.5t-47.5 81.5v321h-137q-41 78 -41 155z" />
<glyph unicode="&#x25fc;" horiz-adv-x="1125" d="M0 0v1125h1125v-1125h-1125z" />
</font>
</defs>
</svg>
