<svg xmlns="http://www.w3.org/2000/svg" viewBox="0 0 276.13 276.14"><defs><style>.cls-1{fill:#58c4b2;}.cls-2{fill:#fec674;}.cls-3{fill:#fff;}.cls-4{fill:#fffe85;}.cls-5{fill:#613426;}</style></defs><title>logo</title><g id="Layer_2" data-name="Layer 2"><g id="Layer_1-2" data-name="Layer 1"><path class="cls-1" d="M138.07,273.14c-8.63,0-15.61-5-21.78-9.33-3.77-2.69-7.29-5.19-10.3-6a18.92,18.92,0,0,0-4.85-.52c-2.34,0-5,.24-7.59.48l-.17,0c-2.84.26-5.78.53-8.74.53-5.79,0-10.27-1-14.12-3.28-7.31-4.22-10.84-11.93-14-18.72-2-4.3-3.82-8.31-6.14-10.63s-6.2-4.08-10.37-6l-.18-.08c-6.81-3.11-14.54-6.64-18.78-14s-3.41-15.6-2.73-23c.41-4.51.84-9.17,0-12.45-.83-3.06-3.45-6.72-6-10.25l-.07-.09C7.94,153.65,3,146.68,3,138.07s4.93-15.57,9.29-21.72l.06-.09c2.65-3.73,5.16-7.24,6-10.29.86-3.22.44-7.85,0-12.33l3-.39-3,.28c-.68-7.41-1.45-15.81,2.73-23s12-10.88,18.77-14c4.3-2,8.29-3.81,10.56-6.1s4.16-6.32,6.11-10.57c3.15-6.85,6.68-14.55,14-18.77,3.86-2.24,8.35-3.28,14.12-3.28,2.86,0,5.72.26,8.49.51l.37,0c2.64.24,5.3.49,7.64.49a18.92,18.92,0,0,0,4.85-.52c3-.81,6.7-3.42,10.25-6C122.42,8,129.41,3,138.07,3s15.64,5,21.81,9.36c3.75,2.66,7.28,5.16,10.28,6a18.67,18.67,0,0,0,4.82.52c2.4,0,5-.25,7.6-.48l.38,0c2.78-.25,5.65-.51,8.53-.51,5.79,0,10.28,1,14.14,3.28,7.32,4.24,10.86,12,14,18.77,2,4.29,3.79,8.28,6.08,10.56s6.27,4.12,10.47,6.06l.11.05c6.8,3.1,14.52,6.63,18.78,14s3.4,15.63,2.72,23c-.4,4.28-.84,9.13,0,12.43.81,3,3.32,6.53,6,10.27,4.39,6.17,9.35,13.16,9.35,21.81s-5,15.63-9.34,21.8c-2.54,3.57-5.16,7.25-6,10.3-.86,3.26-.43,7.92,0,12.41.69,7.42,1.46,15.81-2.72,23s-11.89,10.81-18.67,13.93l-.11,0c-4.3,2-8.28,3.82-10.57,6.11s-4.12,6.26-6.05,10.48c-3.17,6.9-6.72,14.63-14,18.86-3.84,2.24-8.33,3.28-14.13,3.28-3,0-5.89-.27-8.74-.53l-.17,0c-2.57-.24-5.22-.48-7.6-.48a18.78,18.78,0,0,0-4.82.52c-3,.8-6.54,3.3-10.27,6C153.69,268.17,146.7,273.14,138.07,273.14Z"/><path class="cls-2" d="M138.07,6c7.68,0,14,4.47,20.07,8.81,4,2.81,7.72,5.47,11.25,6.41a21.79,21.79,0,0,0,5.59.62c2.52,0,5.23-.25,7.88-.5,2.83-.25,5.76-.53,8.63-.53,5.24,0,9.25.92,12.63,2.87,6.49,3.76,9.68,10.71,12.77,17.43,2.06,4.51,4,8.76,6.7,11.44s6.94,4.64,11.43,6.7c6.74,3.08,13.68,6.27,17.45,12.77s3,14,2.32,21.26c-.44,4.77-.88,9.69.12,13.48,1,3.53,3.61,7.27,6.43,11.23,4.32,6.09,8.79,12.39,8.79,20.08s-4.47,14-8.79,20.07c-2.83,4-5.47,7.72-6.43,11.24-1,3.77-.56,8.7-.12,13.48.68,7.3,1.37,14.87-2.32,21.25s-10.73,9.68-17.45,12.77c-4.51,2.08-8.75,4-11.43,6.7s-4.64,6.94-6.7,11.44c-3.09,6.73-6.28,13.68-12.77,17.44-3.38,2-7.39,2.87-12.63,2.87-2.87,0-5.8-.28-8.63-.54-2.65-.24-5.38-.49-7.88-.49a21.79,21.79,0,0,0-5.59.62c-3.53.94-7.28,3.59-11.24,6.41-6.1,4.33-12.4,8.81-20.08,8.81s-14-4.48-20.09-8.81c-4-2.82-7.69-5.47-11.22-6.41a21.5,21.5,0,0,0-5.62-.62c-2.48,0-5.21.25-7.86.49-2.83.26-5.76.54-8.64.54-5.23,0-9.24-.91-12.62-2.87-6.5-3.76-9.67-10.71-12.76-17.44-2.07-4.49-4-8.74-6.71-11.44s-6.93-4.62-11.42-6.69c-6.74-3.08-13.69-6.28-17.45-12.78s-3-14-2.33-21.25c.44-4.78.88-9.71-.12-13.48-1-3.53-3.61-7.27-6.43-11.23C10.48,152.06,6,145.76,6,138.07s4.48-14,8.8-20.08c2.82-4,5.47-7.7,6.43-11.23,1-3.77.55-8.7.12-13.47C20.68,86,20,78.41,23.68,72s10.71-9.69,17.43-12.77c4.5-2.06,8.76-4,11.44-6.7s4.64-6.94,6.7-11.44c3.1-6.72,6.27-13.67,12.77-17.43,3.38-1.95,7.39-2.87,12.62-2.87,2.85,0,5.77.28,8.59.53s5.42.5,7.91.5a21.93,21.93,0,0,0,5.62-.62c3.52-.94,7.27-3.6,11.22-6.41,6.1-4.34,12.4-8.81,20.09-8.81m0-6c-9.61,0-17,5.27-23.57,9.92-3.34,2.38-6.78,4.83-9.29,5.5a16,16,0,0,1-4.07.42c-2.19,0-4.78-.24-7.29-.47h-.08l-.35,0c-2.84-.26-5.77-.53-8.78-.53C78.32,14.81,73.35,16,69,18.49c-8.13,4.7-11.88,12.86-15.19,20.06l0,.06c-1.75,3.82-3.56,7.77-5.49,9.69s-5.65,3.64-9.62,5.46l-.08,0C31.4,57.1,23.21,60.85,18.49,69S14.65,86,15.37,93.8v.11c.38,4.22.77,8.58,0,11.3-.68,2.51-3.14,6-5.52,9.3l-.07.11C5.23,121.13,0,128.52,0,138.07s5.23,17,9.84,23.47l.06.08c2.28,3.19,4.84,6.78,5.54,9.33.73,2.74.3,7.32-.07,11.36-.72,7.87-1.53,16.77,3.12,24.81S31.41,219,38.63,222.34l.16.08c3.92,1.81,7.63,3.52,9.51,5.4s3.67,5.72,5.51,9.71l0,.05c3.31,7.2,7.05,15.37,15.19,20.07,4.32,2.51,9.28,3.68,15.62,3.68,3.09,0,6.09-.28,9-.54l.19,0c2.52-.23,5.12-.47,7.32-.47a16.22,16.22,0,0,1,4.08.41c2.49.67,5.94,3.13,9.28,5.51l.06,0c6.52,4.63,13.92,9.88,23.51,9.88s17-5.26,23.53-9.9c3.38-2.4,6.84-4.86,9.33-5.52a16.07,16.07,0,0,1,4-.42c2.23,0,4.82.24,7.32.47l.2,0c2.9.26,5.91.54,9,.54,6.35,0,11.32-1.17,15.64-3.68,8.14-4.71,11.9-12.9,15.21-20.12l0-.09c1.82-4,3.53-7.71,5.44-9.6s5.67-3.65,9.64-5.48l.07,0,.12-.05c7.18-3.31,15.31-7.05,20-15.16s3.83-17,3.11-24.81c-.38-4-.8-8.62-.06-11.39.68-2.5,3.14-5.95,5.52-9.3,4.65-6.55,9.9-14,9.9-23.55s-5.26-17-9.9-23.55c-2.39-3.36-4.85-6.83-5.53-9.33-.73-2.75-.31-7.32.07-11.36.72-7.85,1.54-16.76-3.11-24.81S244.73,57.09,237.51,53.8l-.08,0c-4-1.83-7.7-3.55-9.6-5.45s-3.64-5.66-5.46-9.63l0-.06c-3.32-7.23-7.07-15.41-15.22-20.13-4.33-2.51-9.3-3.68-15.64-3.68-3,0-6,.27-8.82.53l-.35,0c-2.51.23-5.09.47-7.34.47a15.68,15.68,0,0,1-4-.42c-2.5-.66-5.81-3-9.32-5.49C155.09,5.27,147.68,0,138.07,0Z"/><path class="cls-3" d="M138.07,6c7.68,0,14,4.47,20.07,8.81,4,2.81,7.72,5.47,11.25,6.41a21.79,21.79,0,0,0,5.59.62c2.52,0,5.23-.25,7.88-.5,2.83-.25,5.76-.53,8.63-.53,5.24,0,9.25.92,12.63,2.87,6.49,3.76,9.68,10.71,12.77,17.43,2.06,4.51,4,8.76,6.7,11.44s6.94,4.64,11.43,6.7c6.74,3.08,13.68,6.27,17.45,12.77s3,14,2.32,21.26c-.44,4.77-.88,9.69.12,13.48,1,3.53,3.61,7.27,6.43,11.23,4.32,6.09,8.79,12.39,8.79,20.08s-4.47,14-8.79,20.07c-2.83,4-5.47,7.72-6.43,11.24-1,3.77-.56,8.7-.12,13.48.68,7.3,1.37,14.87-2.32,21.25s-10.73,9.68-17.45,12.77c-4.51,2.08-8.75,4-11.43,6.7s-4.64,6.94-6.7,11.44c-3.09,6.73-6.28,13.68-12.77,17.44-3.38,2-7.39,2.87-12.63,2.87-2.87,0-5.8-.28-8.63-.54-2.65-.24-5.38-.49-7.88-.49a21.79,21.79,0,0,0-5.59.62c-3.53.94-7.28,3.59-11.24,6.41-6.1,4.33-12.4,8.81-20.08,8.81s-14-4.48-20.09-8.81c-4-2.82-7.69-5.47-11.22-6.41a21.5,21.5,0,0,0-5.62-.62c-2.48,0-5.21.25-7.86.49-2.83.26-5.76.54-8.64.54-5.23,0-9.24-.91-12.62-2.87-6.5-3.76-9.67-10.71-12.76-17.44-2.07-4.49-4-8.74-6.71-11.44s-6.93-4.62-11.42-6.69c-6.74-3.08-13.69-6.28-17.45-12.78s-3-14-2.33-21.25c.44-4.78.88-9.71-.12-13.48-1-3.53-3.61-7.27-6.43-11.23C10.48,152.06,6,145.76,6,138.07s4.48-14,8.8-20.08c2.82-4,5.47-7.7,6.43-11.23,1-3.77.55-8.7.12-13.47C20.68,86,20,78.41,23.68,72s10.71-9.69,17.43-12.77c4.5-2.06,8.76-4,11.44-6.7s4.64-6.94,6.7-11.44c3.1-6.72,6.27-13.67,12.77-17.43,3.38-1.95,7.39-2.87,12.62-2.87,2.85,0,5.77.28,8.59.53s5.42.5,7.91.5a21.93,21.93,0,0,0,5.62-.62c3.52-.94,7.27-3.6,11.22-6.41,6.1-4.34,12.4-8.81,20.09-8.81m0-2c-8.34,0-14.9,4.67-21.25,9.18-3.62,2.58-7.37,5.25-10.57,6.11a20,20,0,0,1-5.11.55c-2.37,0-5.06-.25-7.65-.48h-.08l-.35,0c-2.75-.25-5.59-.51-8.42-.51-5.59,0-9.92,1-13.62,3.14C64,26,60.67,33.24,57.46,40.22l0,.06c-2,4.33-3.87,8.43-6.31,10.85s-6.46,4.29-10.76,6.27l-.09,0C33.6,60.49,26,64,22,71s-3.29,14.8-2.6,22.42v.11c.42,4.57.84,9.29-.06,12.69-.88,3.21-3.43,6.8-6.13,10.59l-.07.1C8.63,123.25,4,129.79,4,138.07s4.63,14.83,9.11,21.16l.05.08c2.59,3.61,5.26,7.35,6.14,10.59.92,3.45.48,8.19.06,12.78-.7,7.62-1.42,15.49,2.59,22.43s11.66,10.54,18.35,13.6l.17.07c4.25,2,8.28,3.82,10.66,6.22s4.32,6.53,6.32,10.86l0,0c3.2,7,6.52,14.21,13.55,18.28,3.69,2.14,8,3.14,13.62,3.14,2.9,0,5.81-.27,8.62-.53l.2,0c2.61-.24,5.3-.48,7.68-.48a20,20,0,0,1,5.11.55c3.19.85,6.77,3.4,10.57,6.11l.05,0c6.34,4.49,12.89,9.14,21.2,9.14s14.87-4.66,21.22-9.16c3.83-2.73,7.43-5.28,10.61-6.13a19.86,19.86,0,0,1,5.08-.55c2.42,0,5.1.25,7.69.48l.19,0c2.82.26,5.73.53,8.63.53,5.61,0,9.95-1,13.64-3.14,7-4.08,10.36-11.32,13.58-18.33l0-.09c2-4.3,3.83-8.36,6.25-10.77s6.48-4.29,10.79-6.27l.07,0,.11-.05c7-3.2,14.17-6.51,18.23-13.53s3.29-14.82,2.58-22.43c-.42-4.59-.86-9.33.06-12.79.87-3.21,3.54-7,6.13-10.59,4.51-6.35,9.16-12.91,9.16-21.23s-4.66-14.89-9.16-21.23c-2.71-3.81-5.27-7.41-6.13-10.61-.92-3.46-.48-8.19-.06-12.77.71-7.61,1.43-15.49-2.58-22.44s-11.67-10.54-18.35-13.58l-.1,0c-4.29-2-8.34-3.84-10.75-6.25s-4.29-6.49-6.26-10.8l0-.06c-3.21-7-6.54-14.24-13.59-18.33-3.69-2.14-8-3.14-13.63-3.14-2.84,0-5.7.26-8.46.51l-.35,0c-2.59.24-5.26.49-7.7.49a19.61,19.61,0,0,1-5.07-.55c-3.19-.85-6.78-3.4-10.59-6.1C153,8.67,146.4,4,138.07,4Z"/><path class="cls-2" d="M78.84,183.16c-2.12-7.89,3.72-16.32,13-18.82l50.57-13.54c9.33-2.5,18.6,1.87,20.72,9.77,1.72,6.45-1.86,13.24-8.31,16.88a24.57,24.57,0,0,1,1.29,3.65c2.57,9.59-.8,18.85-7.55,20.65L112,211.55c-6.74,1.8-14.3-4.51-16.87-14.11a26,26,0,0,1-.71-3.81C87.06,193.71,80.56,189.61,78.84,183.16Z"/><path class="cls-4" d="M62.87,145.25c-2.31-8.6,1.89-17.49,9.66-22a15.88,15.88,0,0,1-6-8.67,16.24,16.24,0,0,1,3.1-14.26A14.41,14.41,0,0,1,68.2,92C69.41,84.07,67,78.42,61,73.18s-2-8.9-2-8.9c2.18,5.34,6.38,5.15,6.38,5.15,24.48-.26,29,13.83,29.77,17.45a22.27,22.27,0,0,1,6.22-2.75c11.15-3,22.46,3.05,25.26,13.5.16.61.28,1.22.38,1.82,13.32-3.34,26.72,3.93,30.06,16.39s-4.79,25.74-18.25,29.34a27.27,27.27,0,0,1-3,.62l-44.95,12a21.28,21.28,0,0,1-2.66.89,21.83,21.83,0,0,1-2.74.56l-.61.16,0-.09C74.78,160.46,65.38,154.64,62.87,145.25Z"/><path class="cls-2" d="M184.25,164.34,171.86,161c.75,6.69-1.75,13.72-6.89,19.29,2.3,10.77-.38,23.53-10.78,28.57l9.9,2.66c6.75,1.8,14.3-4.51,16.87-14.11a26,26,0,0,0,.71-3.81c7.4.08,13.9-4,15.63-10.47C199.41,175.27,193.57,166.84,184.25,164.34Z"/><path class="cls-5" d="M217.2,64.28c-2.17,5.34-6.37,5.15-6.37,5.15-24.48-.26-29,13.83-29.76,17.45a22.46,22.46,0,0,0-6.23-2.75c-10.05-2.69-20.21,2-24.17,10.56A31.16,31.16,0,0,1,166.07,116c2,9.53-1.43,19.74-7.86,27.22.59.27,1.19.56,1.78.9a24,24,0,0,1,9.58,9.5l15.79,4.22a20.6,20.6,0,0,0,2.65.89,22.2,22.2,0,0,0,2.74.56l.61.16,0-.09c10,1.09,19.36-4.73,21.88-14.12,2.3-8.6-1.9-17.49-9.67-22a15.88,15.88,0,0,0,6-8.67,16.24,16.24,0,0,0-3.1-14.26A14.33,14.33,0,0,0,207.93,92c-1.21-7.92,1.23-13.57,7.26-18.81S217.2,64.28,217.2,64.28Z"/></g></g></svg>